<?xml version="1.0" encoding="UTF-8"?>
<!--Generator: Apple Native CoreSVG 175-->
<!DOCTYPE svg
PUBLIC "-//W3C//DTD SVG 1.1//EN"
       "http://www.w3.org/Graphics/SVG/1.1/DTD/svg11.dtd">
<svg version="1.1" xmlns="http://www.w3.org/2000/svg" xmlns:xlink="http://www.w3.org/1999/xlink" width="3300" height="2200">
 <!--glyph: "", point size: 100.0, font version: "17.0d11e1", template writer version: "65.1"-->
 <style>.hierarchical-0:primary {fill:#212121}
.hierarchical-1:secondary {fill:#4D4D4D}

.SFSymbolsPreview212121 {fill:#212121;opacity:1.0}
.SFSymbolsPreview4D4D4D {fill:#4D4D4D;opacity:1.0}
</style>
 <g id="Notes">
  <rect height="2200" id="artboard" style="fill:white;opacity:1" width="3300" x="0" y="0"/>
  <line style="fill:none;stroke:black;opacity:1;stroke-width:0.5;" x1="263" x2="3036" y1="292" y2="292"/>
  <text style="stroke:none;fill:black;font-family:sans-serif;font-size:13;font-weight:bold;" transform="matrix(1 0 0 1 263 322)">Weight/Scale Variations</text>
  <text style="stroke:none;fill:black;font-family:sans-serif;font-size:13;text-anchor:middle;" transform="matrix(1 0 0 1 559.711 322)">Ultralight</text>
  <text style="stroke:none;fill:black;font-family:sans-serif;font-size:13;text-anchor:middle;" transform="matrix(1 0 0 1 856.422 322)">Thin</text>
  <text style="stroke:none;fill:black;font-family:sans-serif;font-size:13;text-anchor:middle;" transform="matrix(1 0 0 1 1153.13 322)">Light</text>
  <text style="stroke:none;fill:black;font-family:sans-serif;font-size:13;text-anchor:middle;" transform="matrix(1 0 0 1 1449.84 322)">Regular</text>
  <text style="stroke:none;fill:black;font-family:sans-serif;font-size:13;text-anchor:middle;" transform="matrix(1 0 0 1 1746.56 322)">Medium</text>
  <text style="stroke:none;fill:black;font-family:sans-serif;font-size:13;text-anchor:middle;" transform="matrix(1 0 0 1 2043.27 322)">Semibold</text>
  <text style="stroke:none;fill:black;font-family:sans-serif;font-size:13;text-anchor:middle;" transform="matrix(1 0 0 1 2339.98 322)">Bold</text>
  <text style="stroke:none;fill:black;font-family:sans-serif;font-size:13;text-anchor:middle;" transform="matrix(1 0 0 1 2636.69 322)">Heavy</text>
  <text style="stroke:none;fill:black;font-family:sans-serif;font-size:13;text-anchor:middle;" transform="matrix(1 0 0 1 2933.4 322)">Black</text>
  <line style="fill:none;stroke:black;opacity:1;stroke-width:0.5;" x1="263" x2="3036" y1="1903" y2="1903"/>
  <g transform="matrix(1 0 0 1 263 1933)">
   <path d="M9.24805 0.830078Q10.8691 0.830078 12.2949 0.214844Q13.7207-0.400391 14.8096-1.49414Q15.8984-2.58789 16.5186-4.01367Q17.1387-5.43945 17.1387-7.05078Q17.1387-8.66211 16.5186-10.0879Q15.8984-11.5137 14.8047-12.6074Q13.7109-13.7012 12.2852-14.3164Q10.8594-14.9316 9.23828-14.9316Q7.62695-14.9316 6.20117-14.3164Q4.77539-13.7012 3.69141-12.6074Q2.60742-11.5137 1.9873-10.0879Q1.36719-8.66211 1.36719-7.05078Q1.36719-5.43945 1.9873-4.01367Q2.60742-2.58789 3.69629-1.49414Q4.78516-0.400391 6.21094 0.214844Q7.63672 0.830078 9.24805 0.830078ZM9.24805-0.654297Q7.91992-0.654297 6.7627-1.14746Q5.60547-1.64062 4.73145-2.51953Q3.85742-3.39844 3.36426-4.56055Q2.87109-5.72266 2.87109-7.05078Q2.87109-8.37891 3.35938-9.54102Q3.84766-10.7031 4.72168-11.582Q5.5957-12.4609 6.75293-12.9541Q7.91016-13.4473 9.23828-13.4473Q10.5762-13.4473 11.7334-12.9541Q12.8906-12.4609 13.7695-11.582Q14.6484-10.7031 15.1465-9.54102Q15.6445-8.37891 15.6445-7.05078Q15.6445-5.72266 15.1514-4.56055Q14.6582-3.39844 13.7842-2.51953Q12.9102-1.64062 11.748-1.14746Q10.5859-0.654297 9.24805-0.654297ZM5.6543-7.05078Q5.6543-6.72852 5.85938-6.52832Q6.06445-6.32812 6.40625-6.32812L8.51562-6.32812L8.51562-4.20898Q8.51562-3.88672 8.71094-3.67676Q8.90625-3.4668 9.23828-3.4668Q9.56055-3.4668 9.77051-3.67676Q9.98047-3.88672 9.98047-4.20898L9.98047-6.32812L12.0898-6.32812Q12.4219-6.32812 12.627-6.52832Q12.832-6.72852 12.832-7.05078Q12.832-7.38281 12.627-7.58789Q12.4219-7.79297 12.0898-7.79297L9.98047-7.79297L9.98047-9.90234Q9.98047-10.2344 9.77051-10.4443Q9.56055-10.6543 9.23828-10.6543Q8.90625-10.6543 8.71094-10.4443Q8.51562-10.2344 8.51562-9.90234L8.51562-7.79297L6.40625-7.79297Q6.06445-7.79297 5.85938-7.58789Q5.6543-7.38281 5.6543-7.05078Z"/>
  </g>
  <g transform="matrix(1 0 0 1 281.867 1933)">
   <path d="M11.709 2.91016Q13.75 2.91016 15.5518 2.12891Q17.3535 1.34766 18.7305-0.0292969Q20.1074-1.40625 20.8887-3.20801Q21.6699-5.00977 21.6699-7.05078Q21.6699-9.0918 20.8887-10.8936Q20.1074-12.6953 18.7305-14.0723Q17.3535-15.4492 15.5469-16.2305Q13.7402-17.0117 11.6992-17.0117Q9.6582-17.0117 7.85645-16.2305Q6.05469-15.4492 4.68262-14.0723Q3.31055-12.6953 2.5293-10.8936Q1.74805-9.0918 1.74805-7.05078Q1.74805-5.00977 2.5293-3.20801Q3.31055-1.40625 4.6875-0.0292969Q6.06445 1.34766 7.86621 2.12891Q9.66797 2.91016 11.709 2.91016ZM11.709 1.25Q9.98047 1.25 8.47656 0.605469Q6.97266-0.0390625 5.83496-1.17676Q4.69727-2.31445 4.05762-3.81836Q3.41797-5.32227 3.41797-7.05078Q3.41797-8.7793 4.05762-10.2832Q4.69727-11.7871 5.83008-12.9297Q6.96289-14.0723 8.4668-14.7119Q9.9707-15.3516 11.6992-15.3516Q13.4277-15.3516 14.9316-14.7119Q16.4355-14.0723 17.5781-12.9297Q18.7207-11.7871 19.3652-10.2832Q20.0098-8.7793 20.0098-7.05078Q20.0098-5.32227 19.3701-3.81836Q18.7305-2.31445 17.5928-1.17676Q16.4551-0.0390625 14.9463 0.605469Q13.4375 1.25 11.709 1.25ZM7.17773-7.05078Q7.17773-6.69922 7.41211-6.47461Q7.64648-6.25 8.01758-6.25L10.8887-6.25L10.8887-3.36914Q10.8887-2.99805 11.1133-2.76855Q11.3379-2.53906 11.6895-2.53906Q12.0605-2.53906 12.29-2.76855Q12.5195-2.99805 12.5195-3.36914L12.5195-6.25L15.4004-6.25Q15.7715-6.25 16.001-6.47461Q16.2305-6.69922 16.2305-7.05078Q16.2305-7.42188 16.001-7.65137Q15.7715-7.88086 15.4004-7.88086L12.5195-7.88086L12.5195-10.752Q12.5195-11.1328 12.29-11.3623Q12.0605-11.5918 11.6895-11.5918Q11.3379-11.5918 11.1133-11.3574Q10.8887-11.123 10.8887-10.752L10.8887-7.88086L8.01758-7.88086Q7.63672-7.88086 7.40723-7.65137Q7.17773-7.42188 7.17773-7.05078Z"/>
  </g>
  <g transform="matrix(1 0 0 1 305.646 1933)">
   <path d="M14.9707 5.66406Q17.0605 5.66406 18.96 5.01465Q20.8594 4.36523 22.4512 3.19336Q24.043 2.02148 25.2197 0.429688Q26.3965-1.16211 27.0459-3.06641Q27.6953-4.9707 27.6953-7.05078Q27.6953-9.14062 27.0459-11.04Q26.3965-12.9395 25.2197-14.5312Q24.043-16.123 22.4512-17.2998Q20.8594-18.4766 18.9551-19.126Q17.0508-19.7754 14.9609-19.7754Q12.8711-19.7754 10.9717-19.126Q9.07227-18.4766 7.48535-17.2998Q5.89844-16.123 4.72168-14.5312Q3.54492-12.9395 2.90039-11.04Q2.25586-9.14062 2.25586-7.05078Q2.25586-4.9707 2.90527-3.06641Q3.55469-1.16211 4.72656 0.429688Q5.89844 2.02148 7.49023 3.19336Q9.08203 4.36523 10.9814 5.01465Q12.8809 5.66406 14.9707 5.66406ZM14.9707 3.84766Q13.1641 3.84766 11.5283 3.2959Q9.89258 2.74414 8.53516 1.74805Q7.17773 0.751953 6.17676-0.610352Q5.17578-1.97266 4.62891-3.6084Q4.08203-5.24414 4.08203-7.05078Q4.08203-8.86719 4.62891-10.5029Q5.17578-12.1387 6.17188-13.501Q7.16797-14.8633 8.52539-15.8594Q9.88281-16.8555 11.5186-17.4023Q13.1543-17.9492 14.9609-17.9492Q16.7773-17.9492 18.4131-17.4023Q20.0488-16.8555 21.4111-15.8594Q22.7734-14.8633 23.7695-13.501Q24.7656-12.1387 25.3174-10.5029Q25.8691-8.86719 25.8691-7.05078Q25.8789-5.24414 25.332-3.6084Q24.7852-1.97266 23.7842-0.610352Q22.7832 0.751953 21.4209 1.74805Q20.0586 2.74414 18.4229 3.2959Q16.7871 3.84766 14.9707 3.84766ZM9.19922-7.05078Q9.19922-6.66992 9.45801-6.4209Q9.7168-6.17188 10.1172-6.17188L14.0625-6.17188L14.0625-2.2168Q14.0625-1.81641 14.3115-1.55762Q14.5605-1.29883 14.9512-1.29883Q15.3516-1.29883 15.6104-1.55273Q15.8691-1.80664 15.8691-2.2168L15.8691-6.17188L19.8242-6.17188Q20.2246-6.17188 20.4785-6.4209Q20.7324-6.66992 20.7324-7.05078Q20.7324-7.46094 20.4785-7.71484Q20.2246-7.96875 19.8242-7.96875L15.8691-7.96875L15.8691-11.9141Q15.8691-12.3242 15.6104-12.583Q15.3516-12.8418 14.9512-12.8418Q14.5605-12.8418 14.3115-12.583Q14.0625-12.3242 14.0625-11.9141L14.0625-7.96875L10.1172-7.96875Q9.70703-7.96875 9.45312-7.71484Q9.19922-7.46094 9.19922-7.05078Z"/>
  </g>
  <text style="stroke:none;fill:black;font-family:sans-serif;font-size:13;font-weight:bold;" transform="matrix(1 0 0 1 263 1953)">Design Variations</text>
  <text style="stroke:none;fill:black;font-family:sans-serif;font-size:13;" transform="matrix(1 0 0 1 263 1971)">Symbols are supported in up to nine weights and three scales.</text>
  <text style="stroke:none;fill:black;font-family:sans-serif;font-size:13;" transform="matrix(1 0 0 1 263 1989)">For optimal layout with text and other symbols, vertically align</text>
  <text style="stroke:none;fill:black;font-family:sans-serif;font-size:13;" transform="matrix(1 0 0 1 263 2007)">symbols with the adjacent text.</text>
  <line style="fill:none;stroke:#00AEEF;stroke-width:0.5;opacity:1.0;" x1="776" x2="776" y1="1919" y2="1933"/>
  <g transform="matrix(1 0 0 1 776 1933)">
   <path d="M3.31055 0.15625Q3.70117 0.15625 3.91602-0.00976562Q4.13086-0.175781 4.26758-0.585938L5.52734-4.0332L11.2891-4.0332L12.5488-0.585938Q12.6855-0.175781 12.9004-0.00976562Q13.1152 0.15625 13.4961 0.15625Q13.8867 0.15625 14.1162-0.0585938Q14.3457-0.273438 14.3457-0.644531Q14.3457-0.869141 14.2383-1.17188L9.6582-13.3691Q9.48242-13.8184 9.17969-14.043Q8.87695-14.2676 8.4082-14.2676Q7.5-14.2676 7.17773-13.3789L2.59766-1.16211Q2.49023-0.859375 2.49023-0.634766Q2.49023-0.263672 2.70996-0.0537109Q2.92969 0.15625 3.31055 0.15625ZM6.00586-5.51758L8.37891-12.0898L8.42773-12.0898L10.8008-5.51758Z"/>
  </g>
  <line style="fill:none;stroke:#00AEEF;stroke-width:0.5;opacity:1.0;" x1="793.197" x2="793.197" y1="1919" y2="1933"/>
  <text style="stroke:none;fill:black;font-family:sans-serif;font-size:13;font-weight:bold;" transform="matrix(1 0 0 1 776 1953)">Margins</text>
  <text style="stroke:none;fill:black;font-family:sans-serif;font-size:13;" transform="matrix(1 0 0 1 776 1971)">Leading and trailing margins on the left and right side of each symbol</text>
  <text style="stroke:none;fill:black;font-family:sans-serif;font-size:13;" transform="matrix(1 0 0 1 776 1989)">can be adjusted by modifying the x-location of the margin guidelines.</text>
  <text style="stroke:none;fill:black;font-family:sans-serif;font-size:13;" transform="matrix(1 0 0 1 776 2007)">Modifications are automatically applied proportionally to all</text>
  <text style="stroke:none;fill:black;font-family:sans-serif;font-size:13;" transform="matrix(1 0 0 1 776 2025)">scales and weights.</text>
  <g transform="matrix(1 0 0 1 1289 1933)">
   <path d="M2.8418 1.86523L4.54102 3.57422Q5.18555 4.22852 5.90332 4.17969Q6.62109 4.13086 7.31445 3.35938L18.0078-8.42773L17.041-9.4043L6.42578 2.27539Q6.16211 2.57812 5.89355 2.61719Q5.625 2.65625 5.27344 2.30469L4.10156 1.14258Q3.75 0.791016 3.79395 0.522461Q3.83789 0.253906 4.14062-0.0195312L15.6152-10.8203L14.6387-11.7871L3.04688-0.898438Q2.30469-0.214844 2.25098 0.498047Q2.19727 1.21094 2.8418 1.86523ZM9.25781-16.3281Q8.94531-16.0254 8.90625-15.6348Q8.86719-15.2441 9.04297-14.9512Q9.21875-14.6777 9.55566-14.541Q9.89258-14.4043 10.3809-14.5215Q11.4746-14.7754 12.5977-14.7314Q13.7207-14.6875 14.7949-13.9844L14.209-12.5293Q13.9551-11.9043 14.0674-11.4404Q14.1797-10.9766 14.5801-10.5664L16.875-8.25195Q17.2363-7.88086 17.5781-7.82227Q17.9199-7.76367 18.3398-7.8418L19.4043-8.03711L20.0684-7.36328L20.0293-6.80664Q20-6.43555 20.1221-6.12305Q20.2441-5.81055 20.6055-5.44922L21.3672-4.70703Q21.7285-4.3457 22.1533-4.33105Q22.5781-4.31641 22.9297-4.66797L25.8398-7.58789Q26.1914-7.93945 26.1816-8.35449Q26.1719-8.76953 25.8105-9.13086L25.0391-9.89258Q24.6875-10.2539 24.3799-10.3857Q24.0723-10.5176 23.7109-10.4883L23.1348-10.4395L22.4902-11.0742L22.7344-12.1973Q22.832-12.6172 22.6953-12.9834Q22.5586-13.3496 22.1191-13.7891L19.9219-15.9766Q18.6719-17.2168 17.2607-17.8369Q15.8496-18.457 14.4189-18.4814Q12.9883-18.5059 11.665-17.959Q10.3418-17.4121 9.25781-16.3281ZM10.752-15.957Q11.6602-16.6211 12.7002-16.9043Q13.7402-17.1875 14.8047-17.085Q15.8691-16.9824 16.8701-16.5137Q17.8711-16.0449 18.7012-15.2051L21.1328-12.793Q21.3086-12.6172 21.3525-12.4512Q21.3965-12.2852 21.3379-12.0312L21.0156-10.5469L22.5195-9.0625L23.5059-9.12109Q23.6914-9.13086 23.7891-9.09668Q23.8867-9.0625 24.0332-8.91602L24.6094-8.33984L22.168-5.89844L21.5918-6.47461Q21.4453-6.62109 21.4062-6.71875Q21.3672-6.81641 21.377-7.01172L21.4453-7.98828L19.9512-9.47266L18.4277-9.21875Q18.1836-9.16992 18.042-9.2041Q17.9004-9.23828 17.7148-9.41406L15.7129-11.416Q15.5176-11.5918 15.4932-11.7529Q15.4688-11.9141 15.5859-12.1875L16.4648-14.2773Q15.293-15.3711 13.8281-15.791Q12.3633-16.2109 10.8398-15.7617Q10.7227-15.7324 10.6885-15.8057Q10.6543-15.8789 10.752-15.957Z"/>
  </g>
  <text style="stroke:none;fill:black;font-family:sans-serif;font-size:13;font-weight:bold;" transform="matrix(1 0 0 1 1289 1953)">Exporting</text>
  <text style="stroke:none;fill:black;font-family:sans-serif;font-size:13;" transform="matrix(1 0 0 1 1289 1971)">Symbols should be outlined when exporting to ensure the</text>
  <text style="stroke:none;fill:black;font-family:sans-serif;font-size:13;" transform="matrix(1 0 0 1 1289 1989)">design is preserved when submitting to Xcode.</text>
  <text id="template-version" style="stroke:none;fill:black;font-family:sans-serif;font-size:13;text-anchor:end;" transform="matrix(1 0 0 1 3036 1933)">Template v.3.0</text>
  <text style="stroke:none;fill:black;font-family:sans-serif;font-size:13;text-anchor:end;" transform="matrix(1 0 0 1 3036 1951)">Requires Xcode 13 or greater</text>
  <text id="descriptive-name" style="stroke:none;fill:black;font-family:sans-serif;font-size:13;text-anchor:end;" transform="matrix(1 0 0 1 3036 1969)">Generated from custom.figure.steps.2</text>
  <text style="stroke:none;fill:black;font-family:sans-serif;font-size:13;text-anchor:end;" transform="matrix(1 0 0 1 3036 1987)">Typeset at 100 points</text>
  <text style="stroke:none;fill:black;font-family:sans-serif;font-size:13;" transform="matrix(1 0 0 1 263 726)">Small</text>
  <text style="stroke:none;fill:black;font-family:sans-serif;font-size:13;" transform="matrix(1 0 0 1 263 1156)">Medium</text>
  <text style="stroke:none;fill:black;font-family:sans-serif;font-size:13;" transform="matrix(1 0 0 1 263 1586)">Large</text>
 </g>
 <g id="Guides">
  <g id="H-reference" style="fill:#27AAE1;stroke:none;" transform="matrix(1 0 0 1 339 696)">
   <path d="M0.976562 0L3.66211 0L29.3457-67.1387L30.0293-67.1387L30.0293-70.459L28.125-70.459ZM11.6699-24.4629L46.9727-24.4629L46.2402-26.709L12.4512-26.709ZM55.127 0L57.7637 0L30.6152-70.459L29.4434-70.459L29.4434-67.1387Z"/>
  </g>
  <line id="Baseline-S" style="fill:none;stroke:#27AAE1;opacity:1;stroke-width:0.5;" x1="263" x2="3036" y1="696" y2="696"/>
  <line id="Capline-S" style="fill:none;stroke:#27AAE1;opacity:1;stroke-width:0.5;" x1="263" x2="3036" y1="625.541" y2="625.541"/>
  <g id="H-reference" style="fill:#27AAE1;stroke:none;" transform="matrix(1 0 0 1 339 1126)">
   <path d="M0.976562 0L3.66211 0L29.3457-67.1387L30.0293-67.1387L30.0293-70.459L28.125-70.459ZM11.6699-24.4629L46.9727-24.4629L46.2402-26.709L12.4512-26.709ZM55.127 0L57.7637 0L30.6152-70.459L29.4434-70.459L29.4434-67.1387Z"/>
  </g>
  <line id="Baseline-M" style="fill:none;stroke:#27AAE1;opacity:1;stroke-width:0.5;" x1="263" x2="3036" y1="1126" y2="1126"/>
  <line id="Capline-M" style="fill:none;stroke:#27AAE1;opacity:1;stroke-width:0.5;" x1="263" x2="3036" y1="1055.54" y2="1055.54"/>
  <g id="H-reference" style="fill:#27AAE1;stroke:none;" transform="matrix(1 0 0 1 339 1556)">
   <path d="M0.976562 0L3.66211 0L29.3457-67.1387L30.0293-67.1387L30.0293-70.459L28.125-70.459ZM11.6699-24.4629L46.9727-24.4629L46.2402-26.709L12.4512-26.709ZM55.127 0L57.7637 0L30.6152-70.459L29.4434-70.459L29.4434-67.1387Z"/>
  </g>
  <line id="Baseline-L" style="fill:none;stroke:#27AAE1;opacity:1;stroke-width:0.5;" x1="263" x2="3036" y1="1556" y2="1556"/>
  <line id="Capline-L" style="fill:none;stroke:#27AAE1;opacity:1;stroke-width:0.5;" x1="263" x2="3036" y1="1485.54" y2="1485.54"/>
  <line id="left-margin-Regular-M" style="fill:none;stroke:#00AEEF;stroke-width:0.5;opacity:1.0;" x1="1402.59" x2="1402.59" y1="1030.78" y2="1150.12"/>
  <line id="right-margin-Regular-M" style="fill:none;stroke:#00AEEF;stroke-width:0.5;opacity:1.0;" x1="1497.09" x2="1497.09" y1="1030.78" y2="1150.12"/>
 </g>
 <g id="Symbols">
  <g id="Black-L" transform="matrix(1 0 0 1 2867.12 1556)">
   <path class="hierarchical-0:primary SFSymbolsPreview212121" d="M65.9486 47.5929L65.9486 56.7102L116.862 56.7102L116.862 67.69L9.24161 67.69L9.24161 47.5929C47.865 47.5929 66.7673 47.5929 65.9486 47.5929Z"/>
   <path class="hierarchical-1:secondary SFSymbolsPreview4D4D4D" d="M90.465 45.4277C92.7465 45.4277 94.7085 44.6889 96.3508 43.2114C97.9932 41.7337 98.8143 39.8002 98.8143 37.4108C98.8143 35.8733 98.3854 34.2321 97.5276 32.4871L82.4437 2.07405C81.6601 0.521571 80.9174-0.819995 80.2156-1.95065C79.5138-3.08133 78.8421-4.08208 78.2005-4.95289L69.9601-16.7072L70.3466-17.9846C71.5633-22.0526 72.43-25.5412 72.9467-28.4504C73.4633-31.3596 73.8487-34.6328 74.103-38.27L75.5856-58.1251C75.9852-63.4479 74.7186-68.0195 71.7861-71.8397C68.8535-75.6601 64.4654-77.5702 58.6217-77.5702C54.7597-77.5702 51.0403-76.6099 47.4637-74.6893C43.887-72.7688 40.2312-69.9547 36.496-66.2472L25.4521-55.3057C23.5815-53.4352 22.2787-51.6513 21.5437-49.9542C20.8087-48.2571 20.3412-46.2329 20.1414-43.8816L18.7599-27.3431C18.5601-24.8524 19.1024-22.854 20.3866-21.3479C21.671-19.8419 23.4119-19.0162 25.6094-18.8709C27.8052-18.7239 29.6551-19.283 31.1591-20.5482C32.663-21.8134 33.5217-23.7714 33.7353-26.4221L35.1816-44.2236L41.6063-49.865C42.2204-50.4253 42.8746-50.5691 43.569-50.2962C44.2634-50.0234 44.5644-49.4196 44.4719-48.4848L43.2875-32.2576C42.9814-28.1828 43.6305-24.6221 45.2348-21.5755C46.8391-18.5289 48.637-15.73 50.6285-13.1789L64.9985 4.87896C65.6549 5.69611 66.11 6.32908 66.3637 6.77788C66.6175 7.22667 66.9174 7.80392 67.2633 8.50962L82.8672 40.1947C83.7475 42.009 84.864 43.3347 86.2165 44.1719C87.5691 45.0091 88.9853 45.4277 90.465 45.4277ZM67.8997-83.571C72.387-83.571 76.226-85.1702 79.4166-88.3686C82.6073-91.567 84.2026-95.3294 84.2026-99.656C84.2026-104.182 82.6073-108.035 79.4166-111.213C76.226-114.392 72.387-115.981 67.8997-115.981C63.4271-115.981 59.6281-114.392 56.5028-111.213C53.3775-108.035 51.8148-104.182 51.8148-99.656C51.8148-95.3294 53.3775-91.567 56.5028-88.3686C59.6281-85.1702 63.4271-83.571 67.8997-83.571ZM24.5242 45.4277C27.0313 45.4277 29.2466 44.2735 31.1701 41.9651L53.0249 15.9242C54.2253 14.4713 55.0344 13.3691 55.4521 12.6175C55.8699 11.866 56.2729 10.8425 56.6612 9.54705C56.8287 8.99388 56.9916 8.45172 57.1499 7.92057C57.3081 7.38941 57.4369 6.87447 57.5362 6.37575L44.0954-10.3769L40.5412 5.57357L19.0529 30.9275C18.1822 31.9453 17.514 32.9717 17.0483 34.0069C16.5828 35.042 16.35 36.1247 16.35 37.2548C16.35 39.531 17.16 41.4623 18.7799 43.0484C20.3998 44.6346 22.3145 45.4277 24.5242 45.4277ZM94.5894-34.0912L112.041-34.0912C114.61-34.0912 116.594-34.7861 117.995-36.1759C119.396-37.5657 120.097-39.3603 120.097-41.5595C120.136-43.7967 119.435-45.6172 117.995-47.0208C116.556-48.4245 114.532-49.1263 111.924-49.1263L94.1733-49.1263L82.1575-61.6958L80.798-42.1712L85.6934-37.2187C86.8963-35.9777 88.1588-35.1462 89.4812-34.7243C90.8034-34.3022 92.5062-34.0912 94.5894-34.0912Z"/>
  </g>
  <g id="Heavy-L" transform="matrix(1 0 0 1 2572.48 1556)">
   <path class="hierarchical-0:primary SFSymbolsPreview212121" d="M63.6995 45.6073L63.6995 54.7246L112.593 54.7246L112.593 65.7044L9.24161 65.7044L9.24161 45.6073C46.3331 45.6073 64.4857 45.6073 63.6995 45.6073Z"/>
   <path class="hierarchical-1:secondary SFSymbolsPreview4D4D4D" d="M87.6898 43.618C89.8117 43.618 91.6507 42.9137 93.207 41.5052C94.7634 40.0967 95.5415 38.227 95.5415 35.8962C95.5415 34.3774 95.1127 32.7363 94.2548 30.973L79.6775 1.55893C78.943 0.113868 78.2319-1.1671 77.5439-2.28396C76.8558-3.40086 76.1941-4.39615 75.559-5.26982L67.3146-17.0046L67.7377-18.369C68.939-22.2961 69.8002-25.6727 70.3214-28.4988C70.8427-31.325 71.2274-34.532 71.4756-38.1198L72.9259-57.8214C73.307-62.9753 72.0837-67.3956 69.2557-71.0824C66.4277-74.7691 62.2225-76.6125 56.6402-76.6125C52.852-76.6125 49.2701-75.6585 45.8942-73.7504C42.5185-71.8423 39.023-69.1005 35.4077-65.5248L24.5761-54.8095C22.7454-52.9789 21.4688-51.2312 20.7461-49.5663C20.0235-47.9016 19.5669-45.9166 19.3762-43.6116L18.0361-27.2575C17.8454-24.8653 18.363-22.9431 19.5889-21.4909C20.8146-20.0387 22.4848-19.2462 24.5988-19.1132C26.6872-18.9722 28.4482-19.5082 29.8814-20.7212C31.3148-21.9341 32.1366-23.8151 32.347-26.364L33.7885-44.0828L40.1267-49.6467C40.7225-50.1887 41.3582-50.3302 42.0343-50.0711C42.7103-49.812 43.0068-49.2259 42.9234-48.3126L41.7528-32.2319C41.459-28.2372 42.0774-24.7473 43.6082-21.7623C45.1388-18.7771 46.8828-16.0366 48.8405-13.5409L62.9153 4.15234C63.5745 4.97236 64.0273 5.60526 64.2735 6.05104C64.5197 6.49682 64.8065 7.05719 65.1341 7.73215L80.3553 38.6064C81.211 40.3713 82.2904 41.6477 83.5936 42.4358C84.8971 43.2239 86.2623 43.618 87.6898 43.618ZM65.4749-82.4461C69.8664-82.4461 73.6184-84.0091 76.7303-87.1351C79.8425-90.261 81.3985-93.9394 81.3985-98.1703C81.3985-102.592 79.8425-106.357 76.7303-109.466C73.6184-112.575 69.8664-114.13 65.4749-114.13C61.1071-114.13 57.3944-112.575 54.3369-109.466C51.2793-106.357 49.7506-102.592 49.7506-98.1703C49.7506-93.9394 51.2793-90.261 54.3369-87.1351C57.3944-84.0091 61.1071-82.4461 65.4749-82.4461ZM23.3268 43.618C25.751 43.618 27.8542 42.548 29.6368 40.4082L50.9749 14.9899C52.1265 13.5982 52.8974 12.545 53.2874 11.8304C53.6775 11.1157 54.068 10.126 54.4592 8.86133C54.6698 8.20932 54.8652 7.57521 55.0451 6.959C55.2249 6.34278 55.3816 5.73747 55.5147 5.14307L42.6685-10.8534L39.151 5.07653L18.385 29.6068C17.5114 30.6214 16.8304 31.634 16.3418 32.6446C15.8531 33.6552 15.6089 34.7423 15.6089 35.906C15.6089 38.0838 16.3682 39.9135 17.8868 41.3953C19.4052 42.8771 21.2186 43.618 23.3268 43.618ZM91.4407-34.249L108.18-34.249C110.632-34.249 112.539-34.907 113.903-36.2232C115.267-37.5393 115.949-39.2585 115.949-41.3807C115.979-43.5286 115.297-45.2706 113.903-46.6066C112.51-47.9426 110.572-48.6106 108.091-48.6106L90.919-48.6106L79.1719-60.9985L77.8675-42.2262L82.7386-37.3166C83.9199-36.1095 85.1564-35.2965 86.4479-34.8775C87.7395-34.4585 89.4037-34.249 91.4407-34.249Z"/>
  </g>
  <g id="Bold-L" transform="matrix(1 0 0 1 2278.24 1556)">
   <path class="hierarchical-0:primary SFSymbolsPreview212121" d="M60.9925 43.2094L60.9925 52.3267L107.456 52.3267L107.456 63.3065L9.24161 63.3065L9.24161 43.2094C44.4894 43.2094 61.7397 43.2094 60.9925 43.2094Z"/>
   <path class="hierarchical-1:secondary SFSymbolsPreview4D4D4D" d="M84.359 41.4323C86.2946 41.4323 87.99 40.7681 89.4453 39.4398C90.9006 38.1114 91.6283 36.3185 91.6283 34.0609C91.6283 32.5687 91.1993 30.9307 90.3415 29.1468L76.354 0.887724C75.6764-0.433342 75.0013-1.6446 74.3287-2.74604C73.6561-3.84753 73.0076-4.83479 72.3833-5.7078L64.1491-17.4007L64.6103-18.8566C65.7903-22.624 66.6435-25.8715 67.1699-28.5991C67.6963-31.3266 68.0812-34.4528 68.3246-37.9776L69.7358-57.473C70.0964-62.4303 68.9251-66.6748 66.2217-70.2064C63.5183-73.738 59.5313-75.5038 54.2606-75.5038C50.5607-75.5038 47.1377-74.5592 43.9914-72.6699C40.8452-70.7806 37.5343-68.1228 34.0587-64.6965L23.4849-54.2544C21.7009-52.4703 20.4554-50.7654 19.7484-49.1396C19.0415-47.5139 18.5979-45.5772 18.4175-43.3297L17.1236-27.1933C16.9433-24.921 17.4309-23.0913 18.5865-21.7041C19.7422-20.317 21.3248-19.5648 23.3343-19.4476C25.2986-19.3114 26.9561-19.8186 28.3065-20.9693C29.6569-22.1199 30.4346-23.9071 30.6396-26.3308L32.0729-43.9571L38.3287-49.4458C38.9038-49.9672 39.5191-50.1061 40.1745-49.8624C40.8301-49.6188 41.1213-49.0534 41.0482-48.1661L39.8931-32.2377C39.6151-28.3422 40.1987-24.9383 41.6441-22.0258C43.0894-19.1132 44.77-16.443 46.6859-14.0151L60.4104 3.24166C61.069 4.06105 61.5176 4.69243 61.7562 5.13579C61.9949 5.57915 62.2677 6.12017 62.5747 6.75883L77.3449 36.6858C78.1691 38.3877 79.2029 39.6043 80.4462 40.3355C81.6896 41.0667 82.9939 41.4323 84.359 41.4323ZM62.556-81.1157C66.8272-81.1157 70.4706-82.6344 73.4861-85.6717C76.5016-88.709 78.0094-92.2829 78.0094-96.3932C78.0094-100.684 76.5016-104.341 73.4861-107.364C70.4706-110.386 66.8272-111.898 62.556-111.898C58.319-111.898 54.7135-110.386 51.7395-107.364C48.7655-104.341 47.2785-100.684 47.2785-96.3932C47.2785-92.2829 48.7655-88.709 51.7395-85.6717C54.7135-82.6344 58.319-81.1157 62.556-81.1157ZM21.882 41.4323C24.2075 41.4323 26.1816 40.4577 27.8045 38.5083L48.5274 13.8297C49.6282 12.5044 50.3567 11.5066 50.7129 10.8361C51.069 10.1656 51.4423 9.21618 51.8328 7.98777C52.0955 7.20984 52.3314 6.45752 52.5404 5.73081C52.7494 5.00409 52.9413 4.28329 53.1163 3.56842L40.9697-11.5333L37.4902 4.41978L17.5526 28.0056C16.6797 29.0148 15.986 30.0104 15.4717 30.9926C14.9575 31.9748 14.7004 33.0655 14.7004 34.2649C14.7004 36.3228 15.4001 38.0318 16.7994 39.392C18.1988 40.7522 19.893 41.4323 21.882 41.4323ZM87.6661-34.4542L103.602-34.4542C105.913-34.4542 107.727-35.0697 109.044-36.3005C110.361-37.5314 111.019-39.161 111.019-41.1894C111.039-43.2278 110.38-44.8748 109.044-46.1303C107.708-47.3858 105.875-48.0136 103.544-48.0136L87.0294-48.0136L75.5366-60.2386L74.2939-42.3712L79.1982-37.452C80.3535-36.2867 81.5588-35.4957 82.814-35.0792C84.0693-34.6625 85.6866-34.4542 87.6661-34.4542Z"/>
  </g>
  <g id="Semibold-L" transform="matrix(1 0 0 1 1983.22 1556)">
   <path class="hierarchical-0:primary SFSymbolsPreview212121" d="M59.1263 41.5563L59.1263 50.6736L103.914 50.6736L103.914 61.6533L9.24161 61.6533L9.24161 41.5563C43.2183 41.5563 59.8465 41.5563 59.1263 41.5563Z"/>
   <path class="hierarchical-1:secondary SFSymbolsPreview4D4D4D" d="M82.0627 39.9256C83.8698 39.9256 85.4662 39.289 86.8519 38.0159C88.2376 36.7428 88.9304 35.0027 88.9304 32.7956C88.9304 31.3218 88.5015 29.6859 87.6436 27.8878L74.0627 0.424996C73.4243-0.810586 72.7741-1.97378 72.1122-3.0646C71.4502-4.15546 70.8108-5.13718 70.194-6.00975L61.9668-17.6737L62.4542-19.1928C63.6196-22.8501 64.4672-26.0086 64.9972-28.6682C65.5271-31.3277 65.9121-34.3982 66.1522-37.8796L67.5365-57.2328C67.883-62.0546 66.7475-66.1778 64.1301-69.6025C61.5126-73.0271 57.6759-74.7394 52.6201-74.7394C48.9811-74.7394 45.6676-73.8013 42.6796-71.9249C39.6916-70.0486 36.5079-67.4488 33.1287-64.1254L22.7326-53.8717C20.9807-52.1198 19.7567-50.4444 19.0606-48.8455C18.3645-47.2466 17.9298-45.3432 17.7566-43.1354L16.4946-27.1492C16.3213-24.9594 16.7883-23.1934 17.8955-21.8511C19.0028-20.5088 20.5251-19.7845 22.4624-19.6782C24.3413-19.5453 25.9274-20.0327 27.2207-21.1404C28.514-22.248 29.2612-23.9705 29.4624-26.3078L30.8901-43.8704L37.0891-49.3072C37.65-49.8145 38.2512-49.9516 38.8924-49.7186C39.5338-49.4856 39.8215-48.9344 39.7554-48.0651L38.611-32.2416C38.3438-28.4147 38.9035-25.0699 40.29-22.2075C41.6765-19.345 43.3133-16.7231 45.2004-14.3419L58.6835 2.61385C59.3416 3.4328 59.7874 4.06313 60.0209 4.50482C60.2543 4.94652 60.5174 5.47419 60.8102 6.08783L75.2696 35.3617C76.072 37.0202 77.0743 38.1955 78.2763 38.8875C79.4785 39.5795 80.7406 39.9256 82.0627 39.9256ZM60.5438-80.1985C64.7319-80.1985 68.3005-81.6866 71.2495-84.6629C74.1984-87.6391 75.6729-91.1408 75.6729-95.1682C75.6729-99.3687 74.1984-102.951 71.2495-105.914C68.3005-108.877 64.7319-110.359 60.5438-110.359C56.3968-110.359 52.8652-108.877 49.9488-105.914C47.0324-102.951 45.5742-99.3687 45.5742-95.1682C45.5742-91.1408 47.0324-87.6391 49.9488-84.6629C52.8652-81.6866 56.3968-80.1985 60.5438-80.1985ZM20.8859 39.9256C23.1434 39.9256 25.0285 39.0165 26.5413 37.1985L46.84 13.0298C47.9059 11.7504 48.6052 10.7907 48.938 10.1506C49.2707 9.51063 49.6321 8.58893 50.0222 7.38554C50.3208 6.5208 50.5846 5.68699 50.8136 4.88411C51.0426 4.0812 51.259 3.28078 51.4628 2.48286L39.7986-12.002L36.3453 3.96702L16.9787 26.9018C16.1062 27.9072 15.4039 28.8912 14.8719 29.8537C14.34 30.8163 14.074 31.9095 14.074 33.1335C14.074 35.1088 14.7326 36.7346 16.0498 38.011C17.367 39.2874 18.979 39.9256 20.8859 39.9256ZM85.0639-34.5957L100.447-34.5957C102.661-34.5957 104.411-35.1818 105.695-36.3538C106.979-37.5259 107.621-39.0938 107.621-41.0576C107.633-43.0204 106.991-44.6019 105.695-45.8019C104.398-47.002 102.637-47.602 100.41-47.602L84.3478-47.602L73.0304-59.7147L71.8303-42.4712L76.7574-37.5453C77.8948-36.4088 79.0786-35.6331 80.3088-35.2182C81.539-34.8032 83.1241-34.5957 85.0639-34.5957Z"/>
  </g>
  <g id="Medium-L" transform="matrix(1 0 0 1 1687.8 1556)">
   <path class="hierarchical-0:primary SFSymbolsPreview212121" d="M57.7113 40.3028L57.7113 49.4201L101.229 49.4201L101.229 60.3998L9.24161 60.3998L9.24161 40.3028C42.2545 40.3028 58.4111 40.3028 57.7113 40.3028Z"/>
   <path class="hierarchical-1:secondary SFSymbolsPreview4D4D4D" d="M80.3216 38.7831C82.0314 38.7831 83.5527 38.1675 84.8856 36.9363C86.2184 35.705 86.8848 34.005 86.8848 31.8363C86.8848 30.3764 86.4559 28.7421 85.598 26.9332L72.3254 0.0741365C71.7167-1.09663 71.0854-2.22339 70.4315-3.30614C69.7776-4.38895 69.1451-5.36647 68.534-6.2387L60.3121-17.8808L60.8194-19.4477C61.9737-23.0216 62.8172-26.1125 63.3498-28.7205C63.8824-31.3285 64.2675-34.3568 64.5051-37.8053L65.869-57.0507C66.2047-61.7697 65.0965-65.801 62.5442-69.1446C59.9918-72.4881 56.2692-74.1599 51.3762-74.1599C47.7834-74.1599 44.553-73.2266 41.685-71.3601C38.8169-69.4936 35.7298-66.9377 32.4236-63.6925L22.1623-53.5815C20.4347-51.854 19.227-50.2009 18.5391-48.6224C17.8512-47.044 17.4234-45.1658 17.2555-42.988L16.0177-27.1156C15.8498-24.9886 16.3011-23.2709 17.3717-21.9625C18.4423-20.6542 19.9188-19.951 21.8014-19.853C23.6154-19.7226 25.1475-20.195 26.3975-21.2701C27.6474-22.3451 28.3716-24.0186 28.5699-26.2905L29.9933-43.8046L36.1493-49.2022C36.6994-49.6987 37.2898-49.8344 37.9203-49.6095C38.5509-49.3845 38.8359-48.8442 38.7753-47.9885L37.6389-32.2447C37.3799-28.4696 37.9214-25.1698 39.2634-22.3453C40.6053-19.5207 42.2089-16.9355 44.0742-14.5898L57.3742 2.13781C58.032 2.95644 58.4756 3.58597 58.7051 4.0264C58.9346 4.46683 59.1904 4.98438 59.4724 5.57905L73.696 34.3577C74.482 35.9833 75.4604 37.1273 76.6311 37.7896C77.8019 38.4519 79.0321 38.7831 80.3216 38.7831ZM59.018-79.5031C63.1432-79.5031 66.6551-80.968 69.5536-83.8979C72.4521-86.8278 73.9014-90.2749 73.9014-94.2392C73.9014-98.3714 72.4521-101.897 69.5536-104.815C66.6551-107.733 63.1432-109.192 59.018-109.192C54.9395-109.192 51.4638-107.733 48.591-104.815C45.7183-101.897 44.2819-98.3714 44.2819-94.2392C44.2819-90.2749 45.7183-86.8278 48.591-83.8979C51.4638-80.968 54.9395-79.5031 59.018-79.5031ZM20.1307 38.7831C22.3366 38.7831 24.1542 37.9238 25.5836 36.2054L45.5607 12.4233C46.5999 11.1786 47.2771 10.2478 47.5922 9.63091C47.9073 9.01399 48.2596 8.11332 48.6493 6.9289C48.9751 5.99834 49.2602 5.10274 49.5044 4.2421C49.7486 3.38142 49.9835 2.52064 50.2091 1.65975L38.9106-12.3574L35.4772 3.62372L16.5436 26.0648C15.6714 27.0674 14.9626 28.0425 14.4172 28.9902C13.8718 29.9379 13.5991 31.033 13.5991 32.2756C13.5991 34.1883 14.2265 35.751 15.4815 36.9638C16.7363 38.1766 18.2861 38.7831 20.1307 38.7831ZM83.0909-34.7031L98.0541-34.7031C100.195-34.7031 101.896-35.2668 103.155-36.3942C104.414-37.5217 105.044-39.0428 105.044-40.9576C105.051-42.8632 104.421-44.395 103.155-45.553C101.889-46.7109 100.181-47.2899 98.0331-47.2899L82.3145-47.2899L71.1302-59.3175L69.9623-42.547L74.9068-37.6161C76.0306-36.5014 77.1981-35.7372 78.4093-35.3236C79.6206-34.9099 81.1811-34.7031 83.0909-34.7031Z"/>
  </g>
  <g id="Regular-L" transform="matrix(1 0 0 1 1392.77 1556)">
   <path class="hierarchical-0:primary SFSymbolsPreview212121" d="M55.8656 38.6678L55.8656 47.7851L97.7256 47.7851L97.7256 58.7649L9.24161 58.7649L9.24161 38.6678C40.9974 38.6678 56.5387 38.6678 55.8656 38.6678Z"/>
   <path class="hierarchical-1:secondary SFSymbolsPreview4D4D4D" d="M78.0506 37.2929C79.6333 37.2929 81.0567 36.7046 82.3207 35.528C83.5846 34.3515 84.2166 32.7038 84.2166 30.5849C84.2166 29.1432 83.7877 27.5109 82.9298 25.6881L70.0593-0.383506C69.4894-1.46973 68.8827-2.54896 68.2394-3.62119C67.596-4.6935 66.9724-5.66554 66.3688-6.53732L58.1538-18.1508L58.687-19.7802C59.8269-23.2452 60.6649-26.2481 61.201-28.7889C61.7371-31.3296 62.1223-34.3028 62.3566-37.7084L63.6939-56.8132C64.0156-61.3982 62.9428-65.3095 60.4755-68.5473C58.0081-71.785 54.4342-73.4039 49.7537-73.4039C46.2211-73.4039 43.099-72.4771 40.3875-70.6234C37.676-68.7697 34.7147-66.2711 31.5038-63.1277L21.4183-53.2031C19.7224-51.5072 18.536-49.8834 17.8588-48.3315C17.1817-46.7796 16.7627-44.9344 16.6019-42.7958L15.3956-27.0719C15.2347-25.0265 15.6656-23.3719 16.6883-22.1079C17.711-20.8439 19.1279-20.1683 20.9391-20.0809C22.6686-19.9539 24.1301-20.4066 25.3236-21.4393C26.517-22.4718 27.2111-24.0813 27.4057-26.2678L28.8235-43.7189L34.9233-49.0652C35.4595-49.5476 36.0358-49.6817 36.6523-49.4672C37.2689-49.2528 37.5504-48.7266 37.4967-47.8886L36.3708-32.2486C36.1226-28.5412 36.6404-25.3 37.9243-22.525C39.208-19.7499 40.7683-17.2126 42.6051-14.913L55.6663 1.51689C56.3236 2.33509 56.7644 2.96358 56.9888 3.40237C57.2131 3.84115 57.4593 4.34551 57.7274 4.91543L71.6434 33.0482C72.408 34.6309 73.3552 35.734 74.4851 36.3576C75.615 36.9811 76.8035 37.2929 78.0506 37.2929ZM57.0279-78.596C61.071-78.596 64.5089-80.0307 67.3416-82.9002C70.1743-85.7696 71.5906-89.1454 71.5906-93.0276C71.5906-97.0707 70.1743-100.522 67.3416-103.382C64.5089-106.241 61.071-107.671 57.0279-107.671C53.0385-107.671 49.6358-106.241 46.82-103.382C44.0042-100.522 42.5964-97.0707 42.5964-93.0276C42.5964-89.1454 44.0042-85.7696 46.82-82.9002C49.6358-80.0307 53.0385-78.596 57.0279-78.596ZM19.1455 37.2929C21.2842 37.2929 23.0138 36.4986 24.3343 34.91L43.8918 11.6322C44.8965 10.4329 45.5448 9.53981 45.8368 8.953C46.1288 8.36619 46.4694 7.49296 46.8586 6.33329C47.2199 5.31687 47.5326 4.34067 47.7967 3.4047C48.0607 2.46868 48.3197 1.52915 48.5738 0.586126L37.7523-12.8209L34.3449 3.17594L15.976 24.9731C15.1043 25.9719 14.3869 26.9355 13.824 27.8638C13.261 28.7921 12.9796 29.8898 12.9796 31.1566C12.9796 32.9876 13.5664 34.468 14.7401 35.598C15.9137 36.7279 17.3822 37.2929 19.1455 37.2929ZM80.5173-34.843L94.9333-34.843C96.9786-34.843 98.6156-35.3777 99.8426-36.447C101.07-37.5163 101.684-38.9764 101.684-40.8271C101.684-42.6581 101.07-44.1251 99.8426-45.2282C98.6156-46.3313 96.9786-46.8829 94.9333-46.8829L79.6624-46.8829L68.6516-58.7994L67.5257-42.6458L72.4929-37.7084C73.5989-36.6222 74.7451-35.8731 75.9316-35.4611C77.1181-35.049 78.6467-34.843 80.5173-34.843Z"/>
  </g>
  <g id="Light-L" transform="matrix(1 0 0 1 1097.09 1556)">
   <path class="hierarchical-0:primary SFSymbolsPreview212121" d="M54.5028 37.4069L54.5028 46.5242L95.1396 46.5242L95.1396 57.504L9.24161 57.504L9.24161 37.4069C40.0692 37.4069 55.1563 37.4069 54.5028 37.4069Z"/>
   <path class="hierarchical-1:secondary SFSymbolsPreview4D4D4D" d="M76.4366 36.1436C77.9646 36.1436 79.3434 35.5656 80.5733 34.4096C81.803 33.2535 82.4179 31.6435 82.4179 29.5793C82.4179 28.1787 81.989 26.5669 81.1311 24.7441L68.4248-1.06072C67.8685-2.11956 67.2687-3.18512 66.6253-4.25739C65.982-5.32969 65.3721-6.28805 64.7958-7.13245L56.6834-18.6023L57.1961-20.1906C58.3086-23.6419 59.1329-26.6175 59.6691-29.1172C60.2052-31.6169 60.5972-34.5422 60.8452-37.8931L62.162-56.7516C62.4837-61.2819 61.4383-65.1454 59.0257-68.3421C56.613-71.5388 53.1348-73.1371 48.5912-73.1371C45.0996-73.1371 42.0152-72.2274 39.3379-70.4079C36.6605-68.5884 33.7369-66.1138 30.567-62.9841L20.6251-53.2031C18.943-51.5209 17.7702-49.9142 17.1067-48.3828C16.4432-46.8515 16.0311-45.037 15.8703-42.9395L14.664-27.2977C14.5031-25.3207 14.9169-23.7173 15.9054-22.4876C16.8939-21.2578 18.2527-20.6061 19.9818-20.5324C21.6839-20.3917 23.1181-20.8239 24.2842-21.8292C25.4503-22.8344 26.1238-24.3892 26.3047-26.4935L27.7021-43.9447L33.9044-49.373C34.4406-49.8555 35.0169-49.9895 35.6334-49.775C36.25-49.5606 36.5315-49.0412 36.4779-48.217L35.352-32.4949C35.1174-28.8558 35.6318-25.6625 36.8951-22.9149C38.1584-20.1672 39.6947-17.6641 41.5041-15.4056L54.4216 0.819168C55.0516 1.60999 55.4822 2.22821 55.7134 2.67384C55.9445 3.11946 56.1942 3.6204 56.4623 4.17664L70.2141 32.0221C70.9513 33.5501 71.8677 34.619 72.9634 35.2288C74.0592 35.8387 75.2169 36.1436 76.4366 36.1436ZM55.5575-78.0829C59.5048-78.0829 62.864-79.4903 65.6352-82.305C68.4064-85.1197 69.7919-88.4203 69.7919-92.2067C69.7919-96.154 68.4064-99.5267 65.6352-102.325C62.864-105.123 59.5048-106.521 55.5575-106.521C51.6639-106.521 48.3365-105.123 45.5754-102.325C42.8144-99.5267 41.4338-96.154 41.4338-92.2067C41.4338-88.4203 42.8144-85.1197 45.5754-82.305C48.3365-79.4903 51.6639-78.0829 55.5575-78.0829ZM18.3934 36.1436C20.491 36.1436 22.1933 35.3562 23.5001 33.7813L42.7909 10.8113C43.8229 9.59832 44.4746 8.70867 44.7461 8.14238C45.0175 7.5761 45.3342 6.71997 45.6961 5.57398C46.0847 4.4481 46.4282 3.36245 46.7265 2.31703C47.0247 1.27154 47.3145 0.229406 47.5959-0.809362L37.0207-13.8676L33.5928 2.45767L15.3676 24.0907C14.5232 25.0758 13.8195 26.0291 13.2566 26.9506C12.6936 27.8721 12.4122 28.9594 12.4122 30.2126C12.4122 31.9752 12.9785 33.4043 14.1111 34.5C15.2437 35.5958 16.6711 36.1436 18.3934 36.1436ZM78.7186-35.0482L93.0936-35.0482C95.0706-35.0482 96.6522-35.5726 97.8382-36.6214C99.0242-37.6702 99.6182-39.0927 99.6182-40.8887C99.6182-42.6513 99.0242-44.067 97.8382-45.1359C96.6522-46.2048 95.0706-46.7392 93.0936-46.7392L77.8842-46.7392L66.545-58.943L65.4191-43.241L70.8173-37.8931C71.9096-36.8342 73.0422-36.0954 74.2149-35.6765C75.3878-35.2576 76.889-35.0482 78.7186-35.0482Z"/>
  </g>
  <g id="Thin-L" transform="matrix(1 0 0 1 801.748 1556)">
   <path class="hierarchical-0:primary SFSymbolsPreview212121" d="M52.7006 35.7393L52.7006 44.8566L91.7192 44.8566L91.7192 55.8364L9.24161 55.8364L9.24161 35.7393C38.8417 35.7393 53.328 35.7393 52.7006 35.7393Z"/>
   <path class="hierarchical-1:secondary SFSymbolsPreview4D4D4D" d="M74.302 34.6237C75.7575 34.6237 77.0776 34.0592 78.2622 32.9303C79.4467 31.8014 80.039 30.2411 80.039 28.2494C80.039 26.903 79.61 25.3184 78.7522 23.4956L66.263-1.95639C65.7249-2.97903 65.1341-4.0265 64.4906-5.0988C63.8473-6.17111 63.2556-7.11136 62.7154-7.91956L54.7387-19.1994L55.2243-20.7334C56.3006-24.1666 57.1069-27.106 57.643-29.5515C58.1791-31.9969 58.5802-34.8589 58.8463-38.1373L60.1359-56.6701C60.4576-61.1281 59.4484-64.9282 57.1082-68.0707C54.7679-71.2131 51.4164-72.7843 47.0537-72.7843C43.6164-72.7843 40.5817-71.8971 37.9496-70.1229C35.3175-68.3487 32.4437-65.9057 29.3281-62.7941L19.5762-53.2031C17.9121-51.539 16.7574-49.9549 16.1121-48.4507C15.4666-46.9465 15.0636-45.1727 14.9028-43.1295L13.6964-27.5962C13.5355-25.7097 13.9267-24.1742 14.87-22.9897C15.8133-21.8052 17.0952-21.1851 18.7157-21.1295C20.3816-20.9707 21.7796-21.3758 22.9095-22.3448C24.0394-23.3139 24.6858-24.7963 24.8487-26.7922L26.2189-44.2433L32.5569-49.7801C33.0931-50.2626 33.6694-50.3966 34.2859-50.1822C34.9025-49.9677 35.1839-49.4574 35.1303-48.6512L34.0045-32.8206C33.788-29.272 34.2979-26.142 35.5341-23.4305C36.7701-20.7191 38.2748-18.2612 40.048-16.057L52.7756-0.103627C53.3693 0.650991 53.7863 1.25563 54.0265 1.7103C54.2668 2.16496 54.5209 2.66138 54.7891 3.19954L68.3237 30.665C69.0248 32.1206 69.9005 33.1443 70.9509 33.736C72.0015 34.3278 73.1185 34.6237 74.302 34.6237ZM53.6128-77.4044C57.4335-77.4044 60.6887-78.7755 63.3785-81.5178C66.0682-84.2602 67.4131-87.4613 67.4131-91.1211C67.4131-94.9417 66.0682-98.2103 63.3785-100.927C60.6887-103.643 57.4335-105.002 53.6128-105.002C49.8459-105.002 46.6181-103.643 43.9294-100.927C41.2407-98.2103 39.8963-94.9417 39.8963-91.1211C39.8963-87.4613 41.2407-84.2602 43.9294-81.5178C46.6181-78.7755 49.8459-77.4044 53.6128-77.4044ZM17.3987 34.6237C19.4421 34.6237 21.1082 33.8453 22.3969 32.2885L41.3348 9.72564C42.403 8.49455 43.0592 7.60942 43.3036 7.07027C43.5479 6.53115 43.8328 5.69763 44.1586 4.56973C44.5834 3.29908 44.9676 2.06867 45.3111 0.878498C45.6546-0.311778 45.9851-1.48961 46.3027-2.65501L36.0531-15.2518L32.5981 1.50769L14.5629 22.9236C13.7547 23.8906 13.0691 24.8303 12.5062 25.7428C11.9432 26.6552 11.6618 27.729 11.6618 28.9641C11.6618 30.6362 12.2009 31.9975 13.2793 33.0479C14.3576 34.0984 15.7307 34.6237 17.3987 34.6237ZM76.3396-35.3196L90.6604-35.3196C92.5469-35.3196 94.0562-35.8304 95.1881-36.8522C96.3198-37.8738 96.8858-39.2465 96.8858-40.9701C96.8858-42.6422 96.3198-43.9901 95.1881-45.0137C94.0562-46.0374 92.5469-46.5492 90.6604-46.5492L75.5324-46.5492L63.759-59.133L62.6331-44.0281L68.6012-38.1373C69.6754-37.1147 70.7899-36.3894 71.9446-35.9615C73.0994-35.5336 74.5644-35.3196 76.3396-35.3196Z"/>
  </g>
  <g id="Ultralight-L" transform="matrix(1 0 0 1 505.736 1556)">
   <path class="hierarchical-0:primary SFSymbolsPreview212121" d="M51.7775 34.8852L51.7775 44.0025L89.9673 44.0025L89.9673 54.9823L9.24161 54.9823L9.24161 34.8852C38.213 34.8852 52.3916 34.8852 51.7775 34.8852Z"/>
   <path class="hierarchical-1:secondary SFSymbolsPreview4D4D4D" d="M73.2087 33.8452C74.6271 33.8452 75.9171 33.2877 77.0786 32.1727C78.2399 31.0577 78.8205 29.5229 78.8205 27.5682C78.8205 26.2496 78.3916 24.6789 77.5337 22.8561L65.1558-2.41515C64.6269-3.41924 64.0408-4.45745 63.3973-5.52977C62.754-6.60208 62.1715-7.53306 61.6499-8.32272L53.7427-19.5052L54.2144-21.0114C55.2722-24.4354 56.0692-27.3562 56.6053-29.7739C57.1414-32.1915 57.5471-35.0211 57.8225-38.2624L59.0982-56.6284C59.42-61.0493 58.4292-64.817 56.1261-67.9317C53.8229-71.0463 50.5363-72.6035 46.2662-72.6035C42.8567-72.6035 39.8475-71.728 37.2386-69.9769C34.6297-68.2259 31.7813-65.7991 28.6936-62.6968L19.0389-53.2031C17.3841-51.5483 16.2387-49.9757 15.6027-48.4854C14.9665-46.9951 14.568-45.2422 14.4073-43.2268L13.2008-27.7492C13.04-25.9089 13.4196-24.4082 14.3397-23.2469C15.2598-22.0855 16.5023-21.4817 18.0673-21.4354C19.7147-21.2673 21.0941-21.6585 22.2054-22.609C23.3168-23.5595 23.9493-25.0049 24.1029-26.9451L25.4592-44.3962L31.8668-49.9886C32.4029-50.4711 32.9793-50.6051 33.5958-50.3907C34.2123-50.1762 34.4938-49.6706 34.4402-48.8736L33.3143-32.9875C33.1071-29.4852 33.6147-26.3876 34.837-23.6947C36.0591-21.0017 37.5476-18.5671 39.3022-16.3906L51.9325-0.576278C52.5077 0.159795 52.9178 0.75748 53.1626 1.21678C53.4075 1.67607 53.664 2.17017 53.9321 2.69907L67.3555 29.9699C68.038 31.3884 68.8929 32.3889 69.9202 32.9714C70.9476 33.5539 72.0437 33.8452 73.2087 33.8452ZM52.6168-77.0569C56.3726-77.0569 59.5745-78.4095 62.2227-81.1147C64.8707-83.82 66.1947-86.9701 66.1947-90.565C66.1947-94.3208 64.8707-97.536 62.2227-100.211C59.5745-102.886 56.3726-104.223 52.6168-104.223C48.9148-104.223 45.7379-102.886 43.0863-100.211C40.4347-97.536 39.1089-94.3208 39.1089-90.565C39.1089-86.9701 40.4347-83.82 43.0863-81.1147C45.7379-78.4095 48.9148-77.0569 52.6168-77.0569ZM16.8893 33.8452C18.9049 33.8452 20.5524 33.0714 21.8319 31.5239L40.5891 9.16957C41.6758 7.9292 42.3343 7.04639 42.5648 6.52115C42.7951 5.99592 43.0639 5.174 43.3711 4.05536C43.8145 2.71056 44.2195 1.406 44.5862 0.141691C44.9528-1.12274 45.3042-2.37009 45.6403-3.60034L35.5575-15.9608L32.0886 1.02112L14.1508 22.3258C13.3611 23.2836 12.6848 24.2163 12.1219 25.1241C11.5589 26.0319 11.2775 27.0988 11.2775 28.3246C11.2775 29.9503 11.8027 31.2769 12.8532 32.3042C13.9038 33.3315 15.2491 33.8452 16.8893 33.8452ZM75.1212-35.4586L89.4142-35.4586C91.2544-35.4586 92.7265-35.9625 93.8307-36.9704C94.9348-37.9781 95.4865-39.3252 95.4865-41.0118C95.4865-42.6376 94.9348-43.9507 93.8307-44.9512C92.7265-45.9517 91.2544-46.4519 89.4142-46.4519L74.3279-46.4519L62.332-59.2303L61.2062-44.4312L67.4662-38.2624C68.5311-37.2583 69.6363-36.54 70.7818-36.1075C71.9273-35.6749 73.3738-35.4586 75.1212-35.4586Z"/>
  </g>
  <g id="Black-M" transform="matrix(1 0 0 1 2877.96 1126)">
   <path class="hierarchical-0:primary SFSymbolsPreview212121" d="M54.9232 30.472L54.9232 37.5355L95.9374 37.5355L95.9374 46.042L9.24161 46.042L9.24161 30.472C40.3556 30.472 55.5827 30.472 54.9232 30.472Z"/>
   <path class="hierarchical-1:secondary SFSymbolsPreview4D4D4D" d="M74.3352 28.6586C76.2326 28.6586 77.8522 28.0579 79.1939 26.8566C80.5356 25.6552 81.2063 24.1075 81.2063 22.2133C81.2063 21.0117 80.874 19.7428 80.2096 18.4067L68.1103-5.97803C67.4628-7.26941 66.8612-8.35901 66.3057-9.24683C65.7502-10.1347 65.223-10.9128 64.7242-11.5813L58.3571-20.6851L58.6224-21.5945C59.5746-24.8655 60.2488-27.6608 60.6453-29.9804C61.0415-32.3001 61.3417-34.8864 61.5458-37.7394L62.7194-53.2204C63.0447-57.482 62.0302-61.1473 59.6757-64.2162C57.3214-67.2852 53.7774-68.8197 49.0439-68.8197C45.994-68.8197 42.9995-68.0726 40.0604-66.5786C37.1215-65.0845 34.1564-62.8455 31.1653-59.8618L22.446-51.2099C20.9642-49.7283 19.9343-48.3176 19.3562-46.9778C18.778-45.638 18.4075-44.0401 18.2447-42.1842L17.1389-29.2238C16.9761-27.2187 17.4152-25.612 18.4558-24.4035C19.4963-23.1951 20.8981-22.5302 22.6611-22.4088C24.4509-22.2879 25.957-22.7381 27.1791-23.7596C28.4014-24.7811 29.0956-26.3567 29.262-28.4866L30.3837-42.3492L35.4496-46.7976C35.941-47.2475 36.4637-47.3609 37.0175-47.1376C37.5712-46.9144 37.8084-46.4323 37.7288-45.6914L36.7994-32.9826C36.5534-29.7661 37.0822-26.9531 38.3857-24.5437C39.689-22.1342 41.1249-19.9202 42.6933-17.9016L54.0606-3.62596C54.563-2.99906 54.9162-2.51 55.1202-2.15878C55.3243-1.80755 55.5683-1.3463 55.852-0.775005L68.2476 24.4307C68.9471 25.8713 69.8398 26.9361 70.9253 27.6251C72.011 28.3141 73.1476 28.6586 74.3352 28.6586ZM56.5714-73.5791C60.1172-73.5791 63.1555-74.8455 65.6865-77.3782C68.2178-79.9109 69.4833-82.8879 69.4833-86.3091C69.4833-89.8929 68.2178-92.9417 65.6865-95.4555C63.1555-97.9693 60.1172-99.2262 56.5714-99.2262C53.0291-99.2262 50.0219-97.9693 47.5496-95.4555C45.0775-92.9417 43.8414-89.8929 43.8414-86.3091C43.8414-82.8879 45.0775-79.9109 47.5496-77.3782C50.0219-74.8455 53.0291-73.5791 56.5714-73.5791ZM22.0087 28.6586C24.017 28.6586 25.8257 27.6928 27.4354 25.7614L44.7751 5.09307C45.7506 3.91303 46.4109 3.01741 46.7555 2.4062C47.1002 1.795 47.4199 0.975308 47.7146-0.052887C47.8111-0.411335 47.9136-0.767176 48.0222-1.12041C48.1308-1.47365 48.2108-1.80883 48.2623-2.12594L37.3716-15.7075L34.5837-3.28791L17.3344 17.0405C16.666 17.8299 16.1613 18.6356 15.8202 19.4578C15.4793 20.2799 15.3088 21.1134 15.3088 21.9582C15.3088 23.7972 15.977 25.3736 17.3138 26.6876C18.6503 28.0016 20.2153 28.6586 22.0087 28.6586ZM77.8266-34.2399L91.9539-34.2399C94.035-34.2399 95.6315-34.8086 96.7432-35.9459C97.8549-37.0831 98.4107-38.5331 98.4107-40.2956C98.4488-42.0965 97.8929-43.5673 96.7432-44.7083C95.5935-45.8493 93.959-46.4198 91.8396-46.4198L77.5977-46.4198L68.0132-56.3529L66.9126-40.641L70.7845-36.7117C71.7331-35.7248 72.7319-35.0661 73.7809-34.7357C74.8299-34.4052 76.1784-34.2399 77.8266-34.2399Z"/>
  </g>
  <g id="Heavy-M" transform="matrix(1 0 0 1 2583.18 1126)">
   <path class="hierarchical-0:primary SFSymbolsPreview212121" d="M52.8503 28.6473L52.8503 35.7108L92.0034 35.7108L92.0034 44.2173L9.24161 44.2173L9.24161 28.6473C38.9437 28.6473 53.4799 28.6473 52.8503 28.6473Z"/>
   <path class="hierarchical-1:secondary SFSymbolsPreview4D4D4D" d="M71.7712 26.9954C73.5176 26.9954 75.0211 26.4276 76.2819 25.2919C77.5426 24.1562 78.173 22.6674 78.173 20.8255C78.173 19.6383 77.8407 18.3677 77.1761 17.0136L65.5569-6.41912C64.9562-7.60802 64.3848-8.63964 63.8428-9.51397C63.3007-10.3883 62.7821-11.1624 62.2869-11.8362L55.9067-20.9343L56.2096-21.9324C57.1492-25.0668 57.8194-27.7552 58.2203-29.9975C58.621-32.2398 58.9199-34.7658 59.1168-37.5755L60.2607-52.9292C60.5681-57.0307 59.5931-60.5526 57.3359-63.4948C55.0786-66.437 51.7047-67.9081 47.2141-67.9081C44.2326-67.9081 41.3689-67.1656 38.6231-65.6806C35.8773-64.1956 33.0656-62.025 30.1877-59.1688L21.6628-50.7248C20.2189-49.281 19.2133-47.904 18.6459-46.5939C18.0785-45.2838 17.7179-43.7215 17.5641-41.907L16.4987-29.1193C16.345-27.2043 16.7615-25.6673 17.7481-24.5083C18.7347-23.3493 20.0726-22.7146 21.7617-22.6041C23.449-22.4903 24.8705-22.9198 26.0262-23.8927C27.1818-24.8656 27.8418-26.371 28.0064-28.409L29.1254-42.1908L34.0971-46.5558C34.5707-46.9878 35.0754-47.0989 35.6112-46.8891C36.147-46.6794 36.3796-46.214 36.309-45.4929L35.3931-32.9348C35.158-29.7903 35.6571-27.0421 36.8904-24.6902C38.1237-22.3383 39.5092-20.1783 41.047-18.2101L52.1389-4.27191C52.6466-3.63968 52.9985-3.14974 53.1945-2.8021C53.3905-2.45446 53.6214-2.00938 53.8873-1.46687L65.9239 22.9727C66.6019 24.3701 67.4611 25.3899 68.5017 26.0321C69.5423 26.6743 70.6321 26.9954 71.7712 26.9954ZM54.3365-72.5267C57.7976-72.5267 60.7581-73.7602 63.2181-76.2273C65.6781-78.6942 66.9081-81.596 66.9081-84.9325C66.9081-88.4226 65.6781-91.3935 63.2181-93.8452C60.7581-96.2968 57.7976-97.5226 54.3365-97.5226C50.8879-97.5226 47.9581-96.2968 45.5472-93.8452C43.1362-91.3935 41.9308-88.4226 41.9308-84.9325C41.9308-81.596 43.1362-78.6942 45.5472-76.2273C47.9581-73.7602 50.8879-72.5267 54.3365-72.5267ZM20.9077 26.9954C22.8385 26.9954 24.5404 26.1115 26.0134 24.3436L42.8727 4.25547C43.7981 3.13647 44.4205 2.28847 44.74 1.71145C45.0595 1.13445 45.3692 0.346238 45.6692-0.653176C45.8053-1.09815 45.9366-1.53378 46.0633-1.96007C46.1899-2.38636 46.2943-2.80042 46.3764-3.20224L36.0442-16.0768L33.294-3.70754L16.7377 15.8308C16.0639 16.6184 15.5453 17.4115 15.1818 18.2103C14.8184 19.0091 14.6367 19.8479 14.6367 20.7269C14.6367 22.4758 15.2574 23.9577 16.4987 25.1728C17.7399 26.3879 19.2096 26.9954 20.9077 26.9954ZM74.9144-34.3752L88.3491-34.3752C90.3223-34.3752 91.8485-34.9088 92.9277-35.976C94.0069-37.0431 94.5465-38.4229 94.5465-40.1152C94.5756-41.835 94.036-43.2339 92.9277-44.3119C91.8194-45.3899 90.2641-45.9289 88.2618-45.9289L74.5805-45.9289L65.2889-55.658L64.2421-40.6399L68.0505-36.7903C68.9793-35.834 69.9538-35.1925 70.974-34.8656C71.9942-34.5387 73.3077-34.3752 74.9144-34.3752Z"/>
  </g>
  <g id="Bold-M" transform="matrix(1 0 0 1 2288.63 1126)">
   <path class="hierarchical-0:primary SFSymbolsPreview212121" d="M50.5314 26.6061L50.5314 33.6697L87.6026 33.6697L87.6026 42.1761L9.24161 42.1761L9.24161 26.6061C37.3643 26.6061 51.1275 26.6061 50.5314 26.6061Z"/>
   <path class="hierarchical-1:secondary SFSymbolsPreview4D4D4D" d="M68.9029 25.135C70.4803 25.135 71.8541 24.6038 73.0243 23.5416C74.1945 22.4793 74.7796 21.0564 74.7796 19.273C74.7796 18.102 74.4473 16.8294 73.7827 15.4552L62.7006-6.91254C62.1522-7.9868 61.6145-8.95356 61.0875-9.81281C60.5605-10.6721 60.0515-11.4416 59.5604-12.1214L53.1655-21.213L53.5105-22.3105C54.4359-25.2921 55.1016-27.8608 55.5075-30.0166C55.9133-32.1723 56.2106-34.6308 56.3995-37.3921L57.5102-52.6035C57.7975-56.5259 56.8669-59.8873 54.7183-62.6877C52.5697-65.4881 49.386-66.8883 45.1672-66.8883C42.2621-66.8883 39.5447-66.1509 37.0151-64.676C34.4855-63.2012 31.8452-61.107 29.0941-58.3936L20.7866-50.1822C19.385-48.7806 18.4065-47.4413 17.8512-46.1644C17.2959-44.8875 16.9464-43.365 16.8027-41.597L15.7825-29.0024C15.6389-27.188 16.0302-25.7291 16.9563-24.6255C17.8826-23.5219 19.1489-22.9209 20.7554-22.8225C22.3281-22.7167 23.655-23.123 24.7363-24.0416C25.8174-24.9601 26.4392-26.387 26.6017-28.3223L27.7177-42.0136L32.5842-46.2854C33.0377-46.6973 33.5222-46.8059 34.0379-46.6112C34.5537-46.4165 34.7813-45.9697 34.7207-45.2708L33.8199-32.8812C33.5969-29.8173 34.0628-27.1416 35.2177-24.8542C36.3725-22.5667 37.7017-20.467 39.2052-18.5553L49.9892-4.9945C50.5029-4.35631 50.8532-3.86539 51.0402-3.52175C51.2272-3.17812 51.4435-2.75114 51.6893-2.24083L63.3245 21.3417C63.9782 22.6907 64.8002 23.6602 65.7904 24.2501C66.7807 24.84 67.8182 25.135 68.9029 25.135ZM51.8364-71.3495C55.2028-71.3495 58.0761-72.5462 60.4565-74.9397C62.8369-77.3332 64.0271-80.1508 64.0271-83.3926C64.0271-86.7779 62.8369-89.6617 60.4565-92.0438C58.0761-94.4259 55.2028-95.617 51.8364-95.617C48.4926-95.617 45.6495-94.4259 43.307-92.0438C40.9646-89.6617 39.7934-86.7779 39.7934-83.3926C39.7934-80.1508 40.9646-77.3332 43.307-74.9397C45.6495-72.5462 48.4926-71.3495 51.8364-71.3495ZM19.676 25.135C21.5202 25.135 23.1024 24.3425 24.4226 22.7575L40.7445 3.31848C41.6137 2.26777 42.1939 1.47304 42.4852 0.934277C42.7765 0.395519 43.0751-0.357469 43.381-1.32469C43.5614-1.86645 43.7251-2.39134 43.8719-2.89934C44.0187-3.40736 44.1503-3.90966 44.2667-4.40623L34.5592-16.4899L31.8512-4.17695L16.0701 14.4776C15.3904 15.2631 14.8562 16.0422 14.4676 16.8148C14.0791 17.5874 13.8848 18.4323 13.8848 19.3494C13.8848 20.9976 14.4522 22.3739 15.5868 23.4783C16.7214 24.5828 18.0845 25.135 19.676 25.135ZM71.6567-34.5266L84.3164-34.5266C86.1688-34.5266 87.6165-35.0209 88.6594-36.0096C89.7023-36.9984 90.2238-38.2996 90.2238-39.9134C90.2429-41.5426 89.7214-42.8609 88.6594-43.8685C87.5975-44.876 86.1308-45.3798 84.2593-45.3798L71.2052-45.3798L62.2413-54.8806L61.2548-40.6386L64.9921-36.8783C65.8988-35.9563 66.8461-35.3338 67.8341-35.011C68.8221-34.688 70.0963-34.5266 71.6567-34.5266Z"/>
  </g>
  <g id="Semibold-M" transform="matrix(1 0 0 1 1993.41 1126)">
   <path class="hierarchical-0:primary SFSymbolsPreview212121" d="M48.9329 25.1989L48.9329 32.2625L84.5687 32.2625L84.5687 40.769L9.24161 40.769L9.24161 25.1989C36.2755 25.1989 49.5059 25.1989 48.9329 25.1989Z"/>
   <path class="hierarchical-1:secondary SFSymbolsPreview4D4D4D" d="M66.9255 23.8524C68.3864 23.8524 69.6708 23.3466 70.7786 22.3349C71.8864 21.3232 72.4403 19.9458 72.4403 18.2027C72.4403 17.0428 72.108 15.7689 71.4434 14.3809L60.7315-7.2527C60.2192-8.24793 59.7047-9.16997 59.1882-10.0188C58.6715-10.8677 58.1691-11.6341 57.6809-12.318L51.2757-21.4051L51.6498-22.5711C52.5655-25.4474 53.228-27.9336 53.6373-30.0297C54.0466-32.1258 54.343-34.5378 54.5263-37.2657L55.6141-52.3789C55.8875-56.1779 54.9874-59.4287 52.9138-62.1313C50.8401-64.834 47.7875-66.1853 43.7561-66.1853C40.9037-66.1853 38.2872-65.4514 35.9066-63.9835C33.526-62.5157 31.0039-60.4742 28.3402-57.8592L20.1827-49.8081C18.8101-48.4356 17.8504-47.1224 17.3034-45.8683C16.7565-44.6143 16.4146-43.1193 16.2779-41.3832L15.2889-28.9218C15.1521-27.1769 15.526-25.7717 16.4106-24.7063C17.2952-23.6408 18.5122-23.0631 20.0617-22.973C21.5553-22.8727 22.8171-23.2631 23.847-24.1442C24.8769-25.0252 25.4723-26.398 25.6334-28.2624L26.7472-41.8915L31.5412-46.099C31.9808-46.497 32.4516-46.6039 32.9534-46.4196C33.4553-46.2353 33.6794-45.8013 33.6258-45.1176L32.7353-32.8443C32.5207-29.836 32.9637-27.2103 34.0645-24.9672C35.1653-22.7241 36.4557-20.6661 37.9356-18.7932L48.5073-5.49265C49.025-4.85034 49.3743-4.35875 49.555-4.01788C49.7358-3.677 49.9422-3.26251 50.174-2.77439L61.5325 20.2173C62.1696 21.5329 62.9659 22.4677 63.9214 23.0216C64.8769 23.5754 65.8783 23.8524 66.9255 23.8524ZM50.113-70.5379C53.414-70.5379 56.2273-71.7093 58.5528-74.0521C60.8783-76.3949 62.0411-79.1545 62.0411-82.3309C62.0411-85.6441 60.8783-88.4677 58.5528-90.802C56.2273-93.1361 53.414-94.3032 50.113-94.3032C46.8414-94.3032 44.058-93.1361 41.7627-90.802C39.4675-88.4677 38.3199-85.6441 38.3199-82.3309C38.3199-79.1545 39.4675-76.3949 41.7627-74.0521C44.058-71.7093 46.8414-70.5379 50.113-70.5379ZM18.8269 23.8524C20.6114 23.8524 22.1111 23.123 23.326 21.6641L39.2774 2.67253C40.1079 1.6689 40.659 0.910891 40.9309 0.398496C41.2027-0.113893 41.4937-0.842599 41.8037-1.78762C42.0146-2.39611 42.2004-2.98253 42.3612-3.54687C42.522-4.11123 42.6723-4.67436 42.8123-5.23626L33.5355-16.7747L30.8566-4.50057L15.6099 13.5447C14.9261 14.3288 14.3812 15.0982 13.9753 15.8528C13.5695 16.6074 13.3665 17.4564 13.3665 18.3997C13.3665 19.9785 13.8971 21.282 14.9582 22.3101C16.0193 23.3383 17.3088 23.8524 18.8269 23.8524ZM69.4109-34.6309L81.5364-34.6309C83.3056-34.6309 84.6991-35.0982 85.717-36.0329C86.7349-36.9675 87.2438-38.2147 87.2438-39.7743C87.2559-41.341 86.747-42.6038 85.717-43.5628C84.687-44.5218 83.2814-45.0012 81.5001-45.0012L68.8784-45.0012L60.1403-54.3447L59.1954-40.6377L62.8837-36.9389C63.7751-36.0405 64.7037-35.4313 65.6695-35.1112C66.6353-34.791 67.8825-34.6309 69.4109-34.6309Z"/>
  </g>
  <g id="Medium-M" transform="matrix(1 0 0 1 1697.83 1126)">
   <path class="hierarchical-0:primary SFSymbolsPreview212121" d="M47.7207 24.1319L47.7207 31.1955L82.2683 31.1955L82.2683 39.702L9.24161 39.702L9.24161 24.1319C35.4499 24.1319 48.2763 24.1319 47.7207 24.1319Z"/>
   <path class="hierarchical-1:secondary SFSymbolsPreview4D4D4D" d="M65.4262 22.8799C66.7988 22.8799 68.0153 22.3932 69.0758 21.42C70.1363 20.4467 70.6665 19.1037 70.6665 17.3911C70.6665 16.2398 70.3342 14.9648 69.6696 13.5663L59.2385-7.51063C58.7535-8.44593 58.2567-9.33407 57.748-10.175C57.2392-11.0161 56.7418-11.7801 56.2557-12.467L49.8428-21.5508L50.2389-22.7687C51.1472-25.5652 51.8074-27.9888 52.2193-30.0397C52.6312-32.0905 52.9268-34.4672 53.106-37.1699L54.1764-52.2086C54.4393-55.914 53.5624-59.081 51.5456-61.7095C49.5287-64.338 46.5755-65.6523 42.6861-65.6523C39.8737-65.6523 37.3337-64.921 35.0661-63.4584C32.7985-61.9959 30.366-59.9944 27.7686-57.4539L19.7247-49.5245C18.3743-48.1741 17.4287-46.8805 16.8881-45.6438C16.3474-44.4072 16.0114-42.933 15.8799-41.2211L14.9145-28.8607C14.7831-27.1684 15.1438-25.804 15.9968-24.7675C16.8498-23.731 18.0294-23.1709 19.5357-23.0872C20.9694-22.9911 22.1818-23.3694 23.1728-24.222C24.1637-25.0747 24.7392-26.4063 24.8992-28.2171L26.0114-41.7989L30.7504-45.9577C31.1795-46.3452 31.6397-46.4507 32.1311-46.2743C32.6225-46.0979 32.844-45.6736 32.7956-45.0015L31.913-32.8163C31.7047-29.8501 32.1304-27.2623 33.1902-25.0529C34.25-22.8434 35.5109-20.817 36.9729-18.9736L47.3836-5.87037C47.9045-5.22494 48.2529-4.73284 48.429-4.39406C48.605-4.05528 48.8037-3.65024 49.0251-3.17896L60.1737 19.3647C60.7982 20.6551 61.575 21.5635 62.5042 22.0901C63.4334 22.6166 64.4074 22.8799 65.4262 22.8799ZM48.8061-69.9225C52.0576-69.9225 54.8253-71.0747 57.1093-73.3791C59.3932-75.6835 60.5352-78.3991 60.5352-81.526C60.5352-84.7843 59.3932-87.5624 57.1093-89.8603C54.8253-92.1582 52.0576-93.3071 48.8061-93.3071C45.5893-93.3071 42.8512-92.1582 40.5918-89.8603C38.3324-87.5624 37.2027-84.7843 37.2027-81.526C37.2027-78.3991 38.3324-75.6835 40.5918-73.3791C42.8512-71.0747 45.5893-69.9225 48.8061-69.9225ZM18.183 22.8799C19.9223 22.8799 21.3594 22.1983 22.4945 20.835L38.165 2.18274C38.9661 1.21481 39.4952 0.484646 39.7523-0.0077547C40.0094-0.500151 40.2945-1.21045 40.6076-2.13864C40.8417-2.79773 41.0444-3.4308 41.2158-4.03786C41.387-4.64493 41.5516-5.25418 41.7095-5.86562L32.7594-16.9906L30.1025-4.74594L15.2609 12.8374C14.574 13.6204 14.021 14.3824 13.602 15.1233C13.183 15.8642 12.9735 16.7164 12.9735 17.6797C12.9735 19.2058 13.4762 20.4541 14.4816 21.4244C15.4869 22.3947 16.7207 22.8799 18.183 22.8799ZM67.708-34.7101L79.4285-34.7101C81.1345-34.7101 82.487-35.1569 83.4859-36.0505C84.4848-36.9441 84.9843-38.1502 84.9843-39.6688C84.9911-41.1881 84.4917-42.4088 83.4859-43.331C82.4801-44.2531 81.1208-44.7142 79.4079-44.7142L67.1141-44.7142L58.5473-53.9384L57.6339-40.6371L61.2851-36.9849C62.1649-36.1044 63.0792-35.5051 64.0282-35.1871C64.9772-34.8691 66.2038-34.7101 67.708-34.7101Z"/>
  </g>
  <g id="Regular-M" transform="matrix(1 0 0 1 1402.59 1126)">
   <path class="hierarchical-0:primary SFSymbolsPreview212121" d="M46.1397 22.7402L46.1397 29.8038L79.2679 29.8038L79.2679 38.3103L9.24161 38.3103L9.24161 22.7402C34.3731 22.7402 46.6724 22.7402 46.1397 22.7402Z"/>
   <path class="hierarchical-1:secondary SFSymbolsPreview4D4D4D" d="M63.4706 21.6114C64.728 21.6114 65.8561 21.1498 66.8548 20.2265C67.8536 19.3033 68.3529 18.0053 68.3529 16.3326C68.3529 15.1923 68.0206 13.916 67.356 12.5037L57.2911-7.84705C56.8417-8.70419 56.3679-9.54811 55.8694-10.3788C55.371-11.2096 54.8801-11.9704 54.3968-12.6614L47.9739-21.7408L48.3987-23.0265C49.2973-25.7188 49.9544-28.0608 50.3697-30.0527C50.7851-32.0445 51.0796-34.3752 51.2533-37.0449L52.3011-51.9865C52.5503-55.5698 51.7036-58.6274 49.7609-61.1592C47.8181-63.6911 44.9947-64.957 41.2905-64.957C38.5303-64.957 36.09-64.2292 33.9699-62.7735C31.8496-61.3179 29.534-59.3685 27.0229-56.9254L19.1274-49.1545C17.8058-47.8329 16.8787-46.5651 16.3463-45.351C15.8139-44.1371 15.4854-42.6899 15.3608-41.0097L14.4263-28.781C14.3016-27.1573 14.6452-25.8462 15.457-24.8474C16.2689-23.8487 17.3997-23.3116 18.8497-23.2361C20.2052-23.1454 21.3531-23.5079 22.2934-24.3236C23.2335-25.1391 23.7829-26.4172 23.9415-28.1579L25.0516-41.678L29.7189-45.7733C30.1343-46.1471 30.5808-46.2509 31.0585-46.0848C31.5362-45.9186 31.7543-45.5071 31.7127-44.8501L30.8404-32.7798C30.6403-29.8686 31.0434-27.3302 32.0497-25.1647C33.056-22.9991 34.2785-21.0139 35.7172-19.2089L45.918-6.36304C46.4429-5.71355 46.7903-5.22078 46.9602-4.88473C47.1301-4.54868 47.3189-4.15599 47.5265-3.70666L58.4015 18.2527C59.0094 19.5101 59.7608 20.3842 60.6556 20.8751C61.5505 21.3659 62.4888 21.6114 63.4706 21.6114ZM47.1016-69.1198C50.2885-69.1198 52.9968-70.247 55.2265-72.5012C57.4562-74.7555 58.571-77.4137 58.571-80.476C58.571-83.6629 57.4562-86.3816 55.2265-88.6321C52.9968-90.8826 50.2885-92.0078 47.1016-92.0078C43.9562-92.0078 41.2772-90.8826 39.0645-88.6321C36.8518-86.3816 35.7454-83.6629 35.7454-80.476C35.7454-77.4137 36.8518-74.7555 39.0645-72.5012C41.2772-70.247 43.9562-69.1198 47.1016-69.1198ZM17.3432 21.6114C19.0235 21.6114 20.3791 20.9921 21.4099 19.7536L36.714 1.54389C37.4768 0.622518 37.9771-0.071326 38.215-0.537647C38.4529-1.00397 38.7304-1.69025 39.0476-2.59649C39.3119-3.32157 39.5366-4.0155 39.7217-4.67827C39.9068-5.34106 40.0899-6.01048 40.2712-6.68653L31.747-17.2723L29.1188-5.066L14.8058 11.9147C14.1148 12.6964 13.5512 13.4487 13.1151 14.1718C12.679 14.8949 12.4609 15.7512 12.4609 16.7405C12.4609 18.198 12.9273 19.3742 13.8599 20.269C14.7926 21.1639 15.9537 21.6114 17.3432 21.6114ZM65.4869-34.8133L76.679-34.8133C78.3027-34.8133 79.6016-35.2333 80.5757-36.0734C81.5499-36.9136 82.037-38.0662 82.037-39.5312C82.037-40.9887 81.5499-42.1545 80.5757-43.0286C79.6016-43.9028 78.3027-44.3398 76.679-44.3398L64.8129-44.3398L56.4694-53.4083L55.5972-40.6362L59.1999-37.0449C60.0646-36.1877 60.9604-35.6015 61.8874-35.2862C62.8144-34.9709 64.0143-34.8133 65.4869-34.8133Z"/>
  </g>
  <g id="Light-M" transform="matrix(1 0 0 1 1106.81 1126)">
   <path class="hierarchical-0:primary SFSymbolsPreview212121" d="M44.918 21.6098L44.918 28.6734L76.9492 28.6734L76.9492 37.1798L9.24161 37.1798L9.24161 21.6098C33.5409 21.6098 45.433 21.6098 44.918 21.6098Z"/>
   <path class="hierarchical-1:secondary SFSymbolsPreview4D4D4D" d="M62.0236 20.581C63.2319 20.581 64.3201 20.1286 65.2882 19.2238C66.2562 18.319 66.7403 17.0547 66.7403 15.431C66.7403 14.3275 66.408 13.0696 65.7433 11.6574L55.8257-8.45421C55.3886-9.2868 54.9208-10.1185 54.4224-10.9492C53.9239-11.7799 53.4453-12.5285 52.9865-13.195L46.6556-22.1455L47.062-23.3944C47.9361-26.0745 48.5809-28.392 48.9963-30.3471C49.4116-32.3021 49.7123-34.5899 49.8983-37.2104L50.9276-51.9313C51.1769-55.4656 50.3547-58.4802 48.4611-60.9753C46.5673-63.4703 43.8297-64.7178 40.2483-64.7178C37.5248-64.7178 35.1183-64.0053 33.0288-62.5803C30.9392-61.1554 28.6573-59.2275 26.1831-56.7966L18.4163-49.1545C17.1069-47.8451 16.1922-46.5926 15.672-45.397C15.1519-44.2015 14.8295-42.7819 14.705-41.1385L13.7704-28.9834C13.6457-27.4211 13.974-26.1559 14.7551-25.1878C15.5363-24.2197 16.6151-23.7041 17.9914-23.6409C19.3224-23.538 20.4458-23.882 21.3615-24.6731C22.2771-25.4642 22.8081-26.6932 22.9544-28.3603L24.0462-41.8805L28.8055-46.0493C29.2208-46.423 29.6674-46.5269 30.145-46.3607C30.6227-46.1946 30.8408-45.7892 30.7992-45.1445L29.9269-33.0006C29.7391-30.1507 30.1391-27.6552 31.1271-25.5143C32.115-23.3733 33.316-21.4187 34.7301-19.6505L44.8021-6.98859C45.3025-6.36364 45.6407-5.88008 45.8167-5.5379C45.9927-5.19572 46.1846-4.80609 46.3923-4.36901L57.12 17.3328C57.7034 18.5411 58.4272 19.3845 59.2914 19.8631C60.1556 20.3417 61.0663 20.581 62.0236 20.581ZM45.7833-68.6598C48.8844-68.6598 51.5221-69.7624 53.6967-71.9676C55.8711-74.1728 56.9584-76.7636 56.9584-79.7401C56.9584-82.8411 55.8711-85.4893 53.6967-87.6845C51.5221-89.8798 48.8844-90.9774 45.7833-90.9774C42.7238-90.9774 40.1123-89.8798 37.9486-87.6845C35.785-85.4893 34.7032-82.8411 34.7032-79.7401C34.7032-76.7636 35.785-74.1728 37.9486-71.9676C40.1123-69.7624 42.7238-68.6598 45.7833-68.6598ZM16.6689 20.581C18.3124 20.581 19.6435 19.9679 20.662 18.7416L35.7269 0.807927C36.5142-0.125707 37.0176-0.816485 37.2372-1.26441C37.4566-1.71232 37.7127-2.38327 38.0053-3.27725C38.2942-4.10047 38.5465-4.89253 38.7622-5.65342C38.9779-6.41436 39.1887-7.17577 39.3945-7.93765L31.091-18.2107L28.4445-5.70997L14.2603 11.1236C13.5938 11.8929 13.0425 12.6361 12.6064 13.3531C12.1703 14.0701 11.9522 14.9171 11.9522 15.8941C11.9522 17.2903 12.4002 18.4205 13.296 19.2847C14.1919 20.1489 15.3162 20.581 16.6689 20.581ZM63.8743-34.9972L75.0296-34.9972C76.5919-34.9972 77.8418-35.4081 78.7791-36.2298C79.7165-37.0516 80.1852-38.1705 80.1852-39.5864C80.1852-40.9826 79.7165-42.1024 78.7791-42.9459C77.8418-43.7893 76.5919-44.211 75.0296-44.211L63.2186-44.211L54.5808-53.5371L53.7086-41.1698L57.6976-37.2104C58.55-36.3778 59.4336-35.8008 60.3483-35.4794C61.2631-35.1579 62.4384-34.9972 63.8743-34.9972Z"/>
  </g>
  <g id="Thin-M" transform="matrix(1 0 0 1 811.323 1126)">
   <path class="hierarchical-0:primary SFSymbolsPreview212121" d="M43.3021 20.1147L43.3021 27.1783L73.8825 27.1783L73.8825 35.6847L9.24161 35.6847L9.24161 20.1147C32.4403 20.1147 43.7938 20.1147 43.3021 20.1147Z"/>
   <path class="hierarchical-1:secondary SFSymbolsPreview4D4D4D" d="M60.1097 19.2183C61.2531 19.2183 62.2886 18.7781 63.2162 17.8976C64.1437 17.0171 64.6074 15.7975 64.6074 14.2387C64.6074 13.1838 64.2751 11.9503 63.6105 10.538L53.8875-9.25722C53.4666-10.0574 53.007-10.8728 52.5085-11.7035C52.0101-12.5343 51.5477-13.2667 51.1214-13.9007L44.912-22.6809L45.2941-23.8811C46.1359-26.5449 46.7644-28.83 47.1798-30.7364C47.5951-32.6428 47.9039-34.8738 48.1061-37.4294L49.1111-51.8582C49.3604-55.3277 48.5706-58.2856 46.7419-60.732C44.9131-63.1783 42.289-64.4014 38.8698-64.4014C36.195-64.4014 33.8331-63.7092 31.7841-62.3248C29.7351-60.9404 27.4978-59.0409 25.0723-56.6263L17.4758-49.1545C16.1827-47.8613 15.2842-46.6291 14.7803-45.4579C14.2763-44.2866 13.962-42.9036 13.8375-41.3088L12.9028-29.251C12.7782-27.7698 13.0862-26.5655 13.8268-25.638C14.5674-24.7105 15.5772-24.2232 16.8563-24.1762C18.1548-24.0571 19.2457-24.3768 20.129-25.1355C21.0122-25.8941 21.5189-27.0583 21.649-28.6281L22.7164-42.1482L27.5973-46.4143C28.0127-46.788 28.4592-46.8919 28.9369-46.7257C29.4145-46.5596 29.6326-46.1623 29.5911-45.5338L28.7188-33.2927C28.5472-30.5238 28.9432-28.0851 29.9068-25.9766C30.8703-23.868 32.0429-21.954 33.4245-20.2345L43.3263-7.81592C43.7942-7.22343 44.1202-6.75205 44.3044-6.40176C44.4885-6.05147 44.6844-5.6659 44.8922-5.24504L55.4251 16.116C55.9761 17.2595 56.6634 18.0624 57.487 18.5248C58.3107 18.9871 59.185 19.2183 60.1097 19.2183ZM44.0398-68.0515C47.0273-68.0515 49.5718-69.1216 51.6733-71.2619C53.7748-73.4022 54.8256-75.9038 54.8256-78.7667C54.8256-81.7542 53.7748-84.3091 51.6733-86.4313C49.5718-88.5536 47.0273-89.6147 44.0398-89.6147C41.0939-89.6147 38.5716-88.5536 36.4728-86.4313C34.3741-84.3091 33.3247-81.7542 33.3247-78.7667C33.3247-75.9038 34.3741-73.4022 36.4728-71.2619C38.5716-69.1216 41.0939-68.0515 44.0398-68.0515ZM15.7771 19.2183C17.3719 19.2183 18.6706 18.6133 19.6729 17.4033L34.4215-0.165437C35.2412-1.11529 35.7486-1.80202 35.9438-2.22561C36.139-2.64918 36.3666-3.29985 36.6268-4.1776C36.9481-5.13062 37.2369-6.05247 37.4932-6.94314C37.7495-7.83389 37.9968-8.71696 38.235-9.59237L30.2235-19.4517L27.5527-6.56167L13.5388 10.0772C12.9048 10.8303 12.3697 11.5613 11.9336 12.2702C11.4975 12.9791 11.2794 13.8139 11.2794 14.7747C11.2794 16.0898 11.703 17.1591 12.5502 17.9828C13.3974 18.8065 14.4731 19.2183 15.7771 19.2183ZM61.7414-35.2405L72.8481-35.2405C74.3293-35.2405 75.5142-35.6392 76.403-36.4367C77.2917-37.2341 77.7361-38.3083 77.7361-39.6595C77.7361-40.9745 77.2917-42.0335 76.403-42.8364C75.5142-43.6393 74.3293-44.0407 72.8481-44.0407L61.1101-44.0407L52.083-53.7075L51.2107-41.8755L55.7108-37.4294C56.547-36.6293 57.4143-36.0645 58.3128-35.7349C59.2114-35.4053 60.3543-35.2405 61.7414-35.2405Z"/>
  </g>
  <g id="Ultralight-M" transform="matrix(1 0 0 1 515.239 1126)">
   <path class="hierarchical-0:primary SFSymbolsPreview212121" d="M42.4745 19.3489L42.4745 26.4125L72.3118 26.4125L72.3118 34.919L9.24161 34.919L9.24161 19.3489C31.8766 19.3489 42.9543 19.3489 42.4745 19.3489Z"/>
   <path class="hierarchical-1:secondary SFSymbolsPreview4D4D4D" d="M59.1295 18.5204C60.2396 18.5204 61.2481 18.0863 62.1549 17.2183C63.0616 16.3503 63.515 15.1535 63.515 13.628C63.515 12.598 63.1827 11.3769 62.518 9.96468L52.8948-9.66852C52.4822-10.452 52.0267-11.2592 51.5282-12.0899C51.0298-12.9207 50.5758-13.6448 50.166-14.2621L44.019-22.9551L44.3887-24.1304C45.2138-26.7859 45.834-29.0543 46.2494-30.9358C46.6647-32.8172 46.9776-35.0192 47.1882-37.5416L48.1808-51.8209C48.43-55.2571 47.6569-58.1859 45.8613-60.6073C44.0657-63.0287 41.4999-64.2394 38.1637-64.2394C35.5139-64.2394 33.1748-63.5576 31.1466-62.194C29.1183-60.8303 26.9039-58.9454 24.5033-56.539L16.9941-49.1545C15.7093-47.8696 14.8191-46.6478 14.3235-45.489C13.8278-44.3302 13.5177-42.9659 13.3932-41.3961L12.4585-29.3881C12.3339-27.9485 12.6315-26.7753 13.3513-25.8685C14.0712-24.9618 15.0457-24.4891 16.2749-24.4504C17.5568-24.323 18.6311-24.6303 19.4977-25.3723C20.3643-26.1143 20.8585-27.2452 20.9803-28.7652L22.0353-42.2853L26.9785-46.6012C27.3939-46.975 27.8404-47.0788 28.3181-46.9127C28.7957-46.7466 29.0138-46.3534 28.9723-45.7332L28.1-33.4423C27.9367-30.7149 28.3306-28.3053 29.2817-26.2134C30.2328-24.1215 31.3908-22.2282 32.7559-20.5337L42.5704-8.23968C43.0217-7.66382 43.3414-7.19867 43.5297-6.84423C43.718-6.48979 43.9161-6.10629 44.1238-5.69373L54.5571 15.4928C55.0914 16.603 55.76 17.3852 56.5629 17.8392C57.3658 18.2933 58.2214 18.5204 59.1295 18.5204ZM43.1468-67.7399C46.0761-67.7399 48.5728-68.7934 50.637-70.9004C52.7011-73.0076 53.7332-75.4635 53.7332-78.2682C53.7332-81.1975 52.7011-83.7046 50.637-85.7894C48.5728-87.8743 46.0761-88.9167 43.1468-88.9167C40.259-88.9167 37.7824-87.8743 35.7169-85.7894C33.6514-83.7046 32.6186-81.1975 32.6186-78.2682C32.6186-75.4635 33.6514-73.0076 35.7169-70.9004C37.7824-68.7934 40.259-67.7399 43.1468-67.7399ZM15.3203 18.5204C16.8902 18.5204 18.1722 17.9195 19.1663 16.7178L33.7528-0.66399C34.5891-1.62216 35.0987-2.3068 35.2814-2.71793C35.4641-3.12904 35.6772-3.76931 35.9208-4.63876C36.2587-5.65826 36.5662-6.64658 36.8433-7.60373C37.1203-8.56096 37.3863-9.50635 37.6411-10.4399L29.7792-20.0874L27.0959-6.99791L13.1693 9.54126C12.5519 10.2861 12.0251 11.0109 11.589 11.7156C11.1529 12.4203 10.9348 13.2489 10.9348 14.2014C10.9348 15.4749 11.346 16.5131 12.1682 17.316C12.9905 18.1189 14.0412 18.5204 15.3203 18.5204ZM60.649-35.3651L71.7307-35.3651C73.1704-35.3651 74.3221-35.7576 75.1859-36.5427C76.0497-37.3276 76.4816-38.379 76.4816-39.6968C76.4816-40.9704 76.0497-41.9982 75.1859-42.7803C74.3221-43.5624 73.1704-43.9534 71.7307-43.9534L60.0301-43.9534L50.8036-53.7947L49.9313-42.2369L54.6931-37.5416C55.521-36.7581 56.38-36.1995 57.2702-35.8658C58.1605-35.532 59.2868-35.3651 60.649-35.3651Z"/>
  </g>
  <g id="Black-S" transform="matrix(1 0 0 1 2887.07 696)">
   <path class="hierarchical-0:primary SFSymbolsPreview212121" d="M45.599 16.7475L45.599 22.2832L78.2416 22.2832L78.2416 28.9497L9.24161 28.9497L9.24161 16.7475C34.0048 16.7475 46.1239 16.7475 45.599 16.7475Z"/>
   <path class="hierarchical-1:secondary SFSymbolsPreview4D4D4D" d="M60.9478 15.2832C62.4777 15.2832 63.7798 14.8031 64.854 13.8428C65.9282 12.8825 66.4653 11.6536 66.4653 10.1562C66.4653 9.21222 66.2049 8.2194 65.6841 7.17773L56.065-12.207C55.5441-13.2487 55.064-14.1194 54.6245-14.8193C54.185-15.5192 53.77-16.1295 53.3794-16.6504L48.3989-23.7793L48.5943-24.4629C49.343-27.067 49.8719-29.2887 50.1812-31.1279C50.4904-32.9671 50.7264-35.0098 50.8892-37.2559L51.8169-49.4141C52.0773-52.7995 51.2716-55.7129 49.3999-58.1543C47.5282-60.5957 44.7043-61.8164 40.9282-61.8164C38.5194-61.8164 36.135-61.2305 33.7749-60.0586C31.4149-58.8867 29.0467-57.1126 26.6704-54.7363L19.7857-47.9004C18.6138-46.7285 17.8-45.6136 17.3443-44.5557C16.8886-43.4978 16.5956-42.2364 16.4653-40.7715L15.5864-30.5664C15.4562-28.9713 15.8061-27.6937 16.6362-26.7334C17.4663-25.7731 18.5813-25.2442 19.981-25.1465C21.4133-25.0488 22.6177-25.4069 23.5943-26.2207C24.5708-27.0345 25.1242-28.2878 25.2544-29.9805L26.1333-40.8691L30.1372-44.3848C30.5279-44.7429 30.9429-44.8324 31.3823-44.6533C31.8218-44.4743 32.009-44.0918 31.9439-43.5059L31.2114-33.4961C31.0161-30.957 31.4393-28.7354 32.481-26.8311C33.5227-24.9268 34.662-23.1771 35.8989-21.582L44.8833-10.3027C45.274-9.81444 45.5507-9.43196 45.7134-9.15527C45.8761-8.87858 46.0714-8.51237 46.2993-8.05664L56.1138 11.9141C56.6672 13.0534 57.3752 13.8997 58.2378 14.4531C59.1005 15.0065 60.0038 15.2832 60.9478 15.2832ZM46.9341-65.5762C49.7336-65.5762 52.1343-66.5772 54.1362-68.5791C56.1382-70.581 57.1392-72.9329 57.1392-75.6348C57.1392-78.4668 56.1382-80.8756 54.1362-82.8613C52.1343-84.847 49.7336-85.8398 46.9341-85.8398C44.1346-85.8398 41.7583-84.847 39.8052-82.8613C37.8521-80.8756 36.8755-78.4668 36.8755-75.6348C36.8755-72.9329 37.8521-70.581 39.8052-68.5791C41.7583-66.5772 44.1346-65.5762 46.9341-65.5762ZM19.5415 15.2832C21.1366 15.2832 22.5851 14.502 23.8872 12.9395L37.6079-3.41797C38.3892-4.36198 38.9181-5.07812 39.1948-5.56641C39.4715-6.05469 39.7238-6.70573 39.9517-7.51953C40.0168-7.77995 40.09-8.04037 40.1714-8.30078C40.2528-8.5612 40.3098-8.80534 40.3423-9.0332L31.6509-19.873L29.4536-10.1074L15.7329 6.05469C15.2121 6.67318 14.8215 7.30794 14.561 7.95898C14.3006 8.61003 14.1704 9.26107 14.1704 9.91211C14.1704 11.377 14.7075 12.6384 15.7818 13.6963C16.856 14.7542 18.1092 15.2832 19.5415 15.2832ZM63.7798-34.4238L75.0591-34.4238C76.7192-34.4238 77.9888-34.8795 78.8677-35.791C79.7466-36.7025 80.186-37.8581 80.186-39.2578C80.2186-40.6901 79.7792-41.8619 78.8677-42.7734C77.9562-43.6849 76.6541-44.1406 74.9614-44.1406L63.6333-44.1406L56.0161-52.002L55.1372-39.502L58.2134-36.377C58.9621-35.5957 59.7515-35.0749 60.5816-34.8145C61.4117-34.554 62.4777-34.4238 63.7798-34.4238Z"/>
  </g>
  <g id="Heavy-S" transform="matrix(1 0 0 1 2591.9 696)">
   <path class="hierarchical-0:primary SFSymbolsPreview212121" d="M43.9823 15.3314L43.9823 20.8671L75.1733 20.8671L75.1733 27.5336L9.24161 27.5336L9.24161 15.3314C32.9036 15.3314 44.4838 15.3314 43.9823 15.3314Z"/>
   <path class="hierarchical-1:secondary SFSymbolsPreview4D4D4D" d="M58.9398 13.9925C60.3468 13.9925 61.5548 13.5392 62.5637 12.6327C63.5726 11.7262 64.077 10.5434 64.077 9.08444C64.077 8.14813 63.8166 7.15146 63.2958 6.09443L54.0685-12.5067C53.5861-13.4638 53.1309-14.2866 52.703-14.9749C52.275-15.6632 51.8657-16.2717 51.4751-16.8002L46.4716-23.9406L46.7016-24.7049C47.4425-27.1938 47.9696-29.3271 48.2827-31.1049C48.5958-32.8826 48.8298-34.8792 48.9849-37.0946L49.8896-49.1721C50.1346-52.4269 49.3597-55.2231 47.5648-57.5608C45.7699-59.8985 43.0804-61.0673 39.4965-61.0673C37.1414-61.0673 34.8645-60.4833 32.6658-59.3153C30.4672-58.1472 28.2258-56.4288 25.9416-54.1601L19.2067-47.4855C18.0656-46.3444 17.271-45.2564 16.823-44.2215C16.3749-43.1866 16.0896-41.9521 15.967-40.518L15.1227-30.4512C15.0002-28.9252 15.3328-27.7014 16.1206-26.7795C16.9085-25.8576 17.9754-25.3517 19.3214-25.2617C20.6691-25.1718 21.8044-25.5145 22.7272-26.2899C23.65-27.0652 24.1765-28.2647 24.3067-29.8883L25.1856-40.7078L29.0973-44.1428C29.4726-44.4855 29.8722-44.5731 30.2963-44.4055C30.7204-44.238 30.9037-43.869 30.8463-43.2985L30.1254-33.4269C29.9378-30.9417 30.336-28.7699 31.3201-26.9118C32.3041-25.0535 33.4031-23.3461 34.617-21.7894L43.3824-10.7752C43.7807-10.2793 44.0574-9.89486 44.2125-9.62201C44.3676-9.34916 44.5513-8.9964 44.7638-8.56372L54.2902 10.7847C54.8282 11.8932 55.5113 12.705 56.3393 13.22C57.1674 13.735 58.0342 13.9925 58.9398 13.9925ZM45.1912-64.7349C47.9292-64.7349 50.2723-65.7109 52.2204-67.6629C54.1686-69.6149 55.1427-71.9111 55.1427-74.5515C55.1427-77.3143 54.1686-79.6656 52.2204-81.6051C50.2723-83.5447 47.9292-84.5145 45.1912-84.5145C42.4609-84.5145 40.1422-83.5447 38.2351-81.6051C36.3281-79.6656 35.3746-77.3143 35.3746-74.5515C35.3746-71.9111 36.3281-69.6149 38.2351-67.6629C40.1422-65.7109 42.4609-64.7349 45.1912-64.7349ZM18.686 13.9925C20.2196 13.9925 21.5798 13.2804 22.7666 11.8562L36.107-4.04029C36.8422-4.93052 37.3385-5.60633 37.596-6.06772C37.8535-6.52911 38.1-7.15518 38.3356-7.94594C38.4313-8.26781 38.5257-8.58393 38.6186-8.89428C38.7116-9.20464 38.7858-9.50449 38.8414-9.79383L30.5995-20.0689L28.4367-10.384L15.2923 5.12121C14.7638 5.73969 14.3597 6.36485 14.08 6.99669C13.8004 7.62853 13.6606 8.28533 13.6606 8.9671C13.6606 10.3628 14.1593 11.5493 15.1568 12.5266C16.1541 13.5038 17.3305 13.9925 18.686 13.9925ZM61.4952-34.516L72.1868-34.516C73.7624-34.516 74.9782-34.9429 75.834-35.7968C76.6899-36.6506 77.1178-37.7505 77.1178-39.0965C77.1427-40.4673 76.7148-41.5834 75.834-42.445C74.9533-43.3065 73.7127-43.7372 72.1121-43.7372L61.2565-43.7372L53.9275-51.3912L53.0947-39.4328L56.0671-36.4231C56.8004-35.6649 57.5706-35.1575 58.3777-34.9009C59.1847-34.6443 60.2239-34.516 61.4952-34.516Z"/>
  </g>
  <g id="Bold-S" transform="matrix(1 0 0 1 2296.9 696)">
   <path class="hierarchical-0:primary SFSymbolsPreview212121" d="M42.174 13.7475L42.174 19.2832L71.7416 19.2832L71.7416 25.9497L9.24161 25.9497L9.24161 13.7475C31.672 13.7475 42.6495 13.7475 42.174 13.7475Z"/>
   <path class="hierarchical-1:secondary SFSymbolsPreview4D4D4D" d="M56.6939 12.5488C57.9635 12.5488 59.0662 12.1257 60.002 11.2793C60.9379 10.4329 61.4058 9.30174 61.4058 7.88572C61.4058 6.958 61.1454 5.95703 60.6246 4.88281L51.8355-12.8418C51.3961-13.7044 50.9688-14.4735 50.5538-15.1489C50.1387-15.8244 49.7359-16.4307 49.3453-16.9678L44.316-24.1211L44.5846-24.9756C45.317-27.3356 45.8419-29.3701 46.1593-31.0791C46.4767-32.7881 46.7086-34.7331 46.8551-36.9141L47.7339-48.9014C47.9618-52.0101 47.2213-54.6753 45.5123-56.8969C43.8033-59.1187 41.2642-60.2295 37.8951-60.2295C35.6002-60.2295 33.4436-59.6476 31.4254-58.4839C29.4072-57.3202 27.3075-55.6641 25.1265-53.5156L18.5592-47.0215C17.4524-45.9147 16.6793-44.8568 16.2398-43.8476C15.8004-42.8385 15.5237-41.6341 15.4097-40.2344L14.6041-30.3222C14.4902-28.8737 14.8035-27.7099 15.544-26.8311C16.2846-25.9521 17.2978-25.472 18.5836-25.3906C19.8368-25.3092 20.8948-25.6348 21.7574-26.3672C22.62-27.0996 23.1164-28.2389 23.2466-29.7851L24.1255-40.5273L27.9341-43.8721C28.2922-44.1976 28.6747-44.283 29.0816-44.1284C29.4885-43.9738 29.6676-43.6198 29.6187-43.0664L28.9107-33.3496C28.7317-30.9245 29.102-28.8086 30.0216-27.002C30.9412-25.1953 31.9951-23.5351 33.1832-22.0215L41.7037-11.3037C42.1106-10.7991 42.3873-10.4126 42.5338-10.144C42.6803-9.87549 42.8511-9.53777 43.0464-9.13087L52.2506 9.52151C52.7714 10.5957 53.4265 11.3688 54.2159 11.8408C55.0053 12.3128 55.8313 12.5488 56.6939 12.5488ZM43.2418-63.7939C45.9111-63.7939 48.1897-64.742 50.0777-66.6382C51.9657-68.5343 52.9097-70.7682 52.9097-73.3398C52.9097-76.0254 51.9657-78.3122 50.0777-80.2002C48.1897-82.0882 45.9111-83.0322 43.2418-83.0322C40.5888-83.0322 38.3346-82.0882 36.4791-80.2002C34.6236-78.3122 33.6959-76.0254 33.6959-73.3398C33.6959-70.7682 34.6236-68.5343 36.4791-66.6382C38.3346-64.742 40.5888-63.7939 43.2418-63.7939ZM17.7291 12.5488C19.1939 12.5488 20.4553 11.9141 21.5132 10.6446L34.4283-4.73633C35.1119-5.56641 35.5717-6.1971 35.8077-6.62842C36.0437-7.05973 36.2838-7.65788 36.5279-8.42285C36.6581-8.81347 36.7761-9.19188 36.8819-9.55809C36.9877-9.9243 37.0813-10.2865 37.1627-10.6445L29.4234-20.288L27.2994-10.6934L14.7994 4.07715C14.2623 4.69564 13.8432 5.31006 13.542 5.92041C13.241 6.53076 13.0904 7.19401 13.0904 7.91015C13.0904 9.22852 13.5462 10.3312 14.4576 11.2183C15.3691 12.1053 16.4596 12.5488 17.7291 12.5488ZM58.94-34.6191L68.9742-34.6191C70.4553-34.6191 71.6109-35.0138 72.441-35.8032C73.2711-36.5926 73.6861-37.6302 73.6861-38.916C73.7024-40.2181 73.2874-41.2719 72.441-42.0776C71.5947-42.8833 70.4228-43.2861 68.9253-43.2861L58.5982-43.2861L51.5914-50.708L50.8101-39.3555L53.6666-36.4746C54.3827-35.7422 55.1314-35.2499 55.9127-34.9976C56.694-34.7453 57.7031-34.6191 58.94-34.6191Z"/>
  </g>
  <g id="Semibold-S" transform="matrix(1 0 0 1 2001.37 696)">
   <path class="hierarchical-0:primary SFSymbolsPreview212121" d="M40.9274 12.6555L40.9274 18.1912L69.3756 18.1912L69.3756 24.8577L9.24161 24.8577L9.24161 12.6555C30.8229 12.6555 41.3848 12.6555 40.9274 12.6555Z"/>
   <path class="hierarchical-1:secondary SFSymbolsPreview4D4D4D" d="M55.1456 11.5535C56.3203 11.5535 57.3504 11.1511 58.236 10.3462C59.1215 9.5413 59.5642 8.44566 59.5642 7.05926C59.5642 6.13746 59.3038 5.13353 58.783 4.04746L50.296-13.0729C49.8862-13.8703 49.4782-14.6023 49.0721-15.2689C48.6659-15.9355 48.2675-16.5403 47.8769-17.0833L42.8298-24.2455L43.1251-25.1622C43.8516-27.4334 44.375-29.3997 44.6953-31.0613C45.0157-32.7229 45.2461-34.6323 45.3867-36.7897L46.2478-48.7148C46.4638-51.7228 45.747-54.2976 44.0972-56.4393C42.4475-58.581 40.0121-59.6519 36.7911-59.6519C34.5376-59.6519 32.464-59.0715 30.5702-57.9107C28.6764-56.7499 26.6745-55.1368 24.5646-53.0713L18.1128-46.7016C17.0297-45.6185 16.2714-44.5813 15.8378-43.5899C15.4043-42.5986 15.1336-41.4149 15.0255-40.0389L14.2466-30.2334C14.1386-28.8381 14.4385-27.7159 15.1465-26.8666C15.8545-26.0173 16.8306-25.555 18.075-25.4795C19.263-25.404 20.2677-25.7177 21.0889-26.4205C21.91-27.1233 22.3856-28.2211 22.5158-29.714L23.3947-40.4029L27.1323-43.6855C27.4785-43.9991 27.8491-44.0831 28.2442-43.9373C28.6393-43.7916 28.8153-43.448 28.7724-42.9065L28.0733-33.2963C27.9002-30.9126 28.2512-28.8353 29.1264-27.0642C30.0016-25.2931 31.0243-23.6655 32.1947-22.1814L40.5463-11.6681C40.9592-11.1576 41.2359-10.7695 41.3764-10.5039C41.517-10.2384 41.679-9.91101 41.8624-9.52189L50.8444 8.6506C51.3534 9.7011 51.9892 10.4475 52.7519 10.8899C53.5147 11.3323 54.3126 11.5535 55.1456 11.5535ZM41.8978-63.1452C44.5197-63.1452 46.7539-64.074 48.6004-65.9317C50.447-67.7893 51.3702-69.9803 51.3702-72.5045C51.3702-75.1367 50.447-77.3791 48.6004-79.2316C46.7539-81.084 44.5197-82.0102 41.8978-82.0102C39.2981-82.0102 37.0883-81.084 35.2684-79.2316C33.4485-77.3791 32.5385-75.1367 32.5385-72.5045C32.5385-69.9803 33.4485-67.7893 35.2684-65.9317C37.0883-64.074 39.2981-63.1452 41.8978-63.1452ZM17.0694 11.5535C18.4868 11.5535 19.6801 10.9721 20.6492 9.8092L33.2709-5.21621C33.919-6.00482 34.3536-6.60441 34.5748-7.01499C34.796-7.42557 35.0317-8.00446 35.2817-8.75166C35.4356-9.18967 35.5699-9.61104 35.6846-10.0158C35.7993-10.4205 35.9062-10.8256 36.0053-11.2311L28.6127-20.4391L26.5153-10.9066L14.4596 3.35733C13.9166 3.97581 13.4871 4.58283 13.1712 5.17837C12.8552 5.77391 12.6973 6.4416 12.6973 7.18144C12.6973 8.44649 13.1234 9.49143 13.9757 10.3163C14.8279 11.1411 15.8591 11.5535 17.0694 11.5535ZM57.1784-34.6903L66.7593-34.6903C68.1753-34.6903 69.2894-35.0627 70.1017-35.8076C70.914-36.5526 71.3202-37.5473 71.3202-38.7916C71.3305-40.0463 70.9244-41.0572 70.1017-41.8243C69.2791-42.5915 68.1546-42.9751 66.7282-42.9751L56.7655-42.9751L49.9808-50.2371L49.2351-39.3022L52.0116-36.5102C52.7159-35.7955 53.4498-35.3136 54.2132-35.0642C54.9767-34.8149 55.9651-34.6903 57.1784-34.6903Z"/>
  </g>
  <g id="Medium-S" transform="matrix(1 0 0 1 1705.56 696)">
   <path class="hierarchical-0:primary SFSymbolsPreview212121" d="M39.982 11.8275L39.982 17.3632L67.5816 17.3632L67.5816 24.0297L9.24161 24.0297L9.24161 11.8275C30.179 11.8275 40.4258 11.8275 39.982 11.8275Z"/>
   <path class="hierarchical-1:secondary SFSymbolsPreview4D4D4D" d="M53.9715 10.7988C55.0744 10.7988 56.0495 10.4121 56.8968 9.63868C57.7441 8.86523 58.1678 7.79654 58.1678 6.4326C58.1678 5.5153 57.9074 4.50912 57.3865 3.41406L49.1287-13.2481C48.7413-13.9961 48.3479-14.7 47.9486-15.3598C47.5491-16.0197 47.1541-16.6234 46.7635-17.1709L41.7029-24.3399L42.0184-25.3037C42.7404-27.5075 43.2627-29.4222 43.5853-31.0479C43.9079-32.6735 44.1372-34.556 44.2733-36.6953L45.1209-48.5733C45.3279-51.5049 44.629-54.0112 43.0242-56.0922C41.4194-58.1733 39.0626-59.2139 35.9539-59.2139C33.7319-59.2139 31.7212-58.6346 29.9217-57.4761C28.1222-56.3176 26.1945-54.737 24.1385-52.7344L17.7742-46.459C16.7091-45.3939 15.962-44.3724 15.533-43.3945C15.104-42.4167 14.8377-41.2487 14.7342-39.8907L13.9754-30.166C13.8719-28.8112 14.1618-27.7204 14.845-26.8935C15.5283-26.0667 16.4764-25.6178 17.6893-25.5469C18.8279-25.4759 19.7921-25.7806 20.5819-26.461C21.3715-27.1413 21.8315-28.2077 21.9617-29.6601L22.8406-40.3085L26.5242-43.544C26.8615-43.8486 27.2231-43.9315 27.6092-43.7925C27.9953-43.6535 28.1691-43.3177 28.1307-42.7852L27.4383-33.2558C27.2697-30.9036 27.6061-28.8555 28.4476-27.1114C29.2891-25.3672 30.2883-23.7643 31.4452-22.3027L39.6688-11.9443C40.0861-11.4293 40.3628-11.0402 40.4989-10.7768C40.6349-10.5135 40.7902-10.194 40.9646-9.81838L49.7782 7.99024C50.2781 9.02279 50.8994 9.74902 51.6419 10.1689C52.3844 10.5889 53.1609 10.7988 53.9715 10.7988ZM40.8787-62.6533C43.4647-62.6533 45.6652-63.5675 47.4803-65.396C49.2954-67.2244 50.2029-69.3828 50.2029-71.8711C50.2029-74.4629 49.2954-76.6715 47.4803-78.4971C45.6652-80.3226 43.4647-81.2353 40.8787-81.2353C38.3195-81.2353 36.1434-80.3226 34.3504-78.4971C32.5574-76.6715 31.661-74.4629 31.661-71.8711C31.661-69.3828 32.5574-67.2244 34.3504-65.396C36.1434-63.5675 38.3195-62.6533 40.8787-62.6533ZM16.5692 10.7988C17.9506 10.7988 19.0922 10.2578 19.9939 9.17579L32.3934-5.58008C33.0144-6.33724 33.43-6.91325 33.64-7.30811C33.8499-7.70296 34.0822-8.26725 34.3367-9.00097C34.5086-9.47492 34.6552-9.92885 34.7767-10.3628C34.8981-10.7967 35.0151-11.2344 35.1278-11.6758L27.9979-20.5537L25.9207-11.0684L14.202 2.81152C13.6544 3.43001 13.2171 4.03141 12.8899 4.61573C12.5628 5.20003 12.3992 5.87109 12.3992 6.6289C12.3992 7.85352 12.8029 8.85466 13.6102 9.63232C14.4175 10.41 15.4038 10.7988 16.5692 10.7988ZM55.8426-34.7442L65.0799-34.7442C66.4464-34.7442 67.5291-35.0998 68.3279-35.811C69.1267-36.5223 69.5262-37.4844 69.5262-38.6972C69.532-39.916 69.1326-40.8943 68.3279-41.6323C67.5233-42.3702 66.4347-42.7392 65.0623-42.7392L55.3758-42.7392L48.7596-49.8799L48.0408-39.2617L50.7566-36.5371C51.452-35.836 52.1746-35.3618 52.9246-35.1148C53.6746-34.8677 54.6473-34.7442 55.8426-34.7442Z"/>
  </g>
  <g id="Regular-S" transform="matrix(1 0 0 1 1410.02 696)">
   <path class="hierarchical-0:primary SFSymbolsPreview212121" d="M38.7491 10.7475L38.7491 16.2832L65.2416 16.2832L65.2416 22.9497L9.24161 22.9497L9.24161 10.7475C29.3392 10.7475 39.1751 10.7475 38.7491 10.7475Z"/>
   <path class="hierarchical-1:secondary SFSymbolsPreview4D4D4D" d="M52.4401 9.81445C53.4492 9.81445 54.3526 9.44824 55.1501 8.71582C55.9476 7.9834 56.3464 6.94987 56.3464 5.61523C56.3464 4.70378 56.086 3.69466 55.5651 2.58789L47.6061-13.4766C47.248-14.1602 46.8737-14.8275 46.4831-15.4785C46.0924-16.1296 45.7018-16.7318 45.3112-17.2852L40.2331-24.4629L40.5749-25.4883C41.291-27.6042 41.8119-29.4515 42.1374-31.0303C42.4629-32.609 42.6908-34.4564 42.821-36.5723L43.651-48.3887C43.8463-51.2207 43.1709-53.6377 41.6247-55.6396C40.0784-57.6416 37.8242-58.6426 34.862-58.6426C32.681-58.6426 30.7523-58.0648 29.0759-56.9092C27.3994-55.7536 25.5684-54.2155 23.5827-52.2949L17.3327-46.1426C16.291-45.1009 15.5586-44.0999 15.1354-43.1396C14.7123-42.1793 14.4519-41.0319 14.3542-39.6973L13.6218-30.0781C13.5241-28.776 13.8008-27.7262 14.4518-26.9287C15.1029-26.1312 16.0143-25.6999 17.1862-25.6348C18.2604-25.5697 19.1719-25.8626 19.9206-26.5137C20.6693-27.1647 21.1087-28.1901 21.2389-29.5898L22.1178-40.1855L25.7311-43.3594C26.0566-43.6523 26.4066-43.7337 26.7809-43.6035C27.1553-43.4733 27.3262-43.1478 27.2936-42.627L26.61-33.2031C26.4473-30.8919 26.7647-28.8818 27.5622-27.1729C28.3597-25.4639 29.3282-23.8932 30.4675-22.4609L38.5241-12.3047C38.9473-11.7838 39.224-11.3932 39.3542-11.1328C39.4844-10.8724 39.6309-10.5632 39.7936-10.2051L48.3874 7.12891C48.8757 8.13802 49.4779 8.83789 50.194 9.22852C50.9101 9.61914 51.6588 9.81445 52.4401 9.81445ZM39.5495-62.0117C42.0886-62.0117 44.2451-62.9069 46.0192-64.6973C47.7933-66.4876 48.6803-68.6035 48.6803-71.0449C48.6803-73.584 47.7933-75.7487 46.0192-77.5391C44.2451-79.3294 42.0886-80.2246 39.5495-80.2246C37.043-80.2246 34.9108-79.3294 33.153-77.5391C31.3952-75.7487 30.5163-73.584 30.5163-71.0449C30.5163-68.6035 31.3952-66.4876 33.153-64.6973C34.9108-62.9069 37.043-62.0117 39.5495-62.0117ZM15.9167 9.81445C17.2513 9.81445 18.3255 9.32617 19.1393 8.34961L31.2487-6.05469C31.8346-6.77084 32.2253-7.31608 32.4206-7.69043C32.6159-8.06478 32.8438-8.61002 33.1042-9.32617C33.2995-9.84699 33.4622-10.3434 33.5925-10.8154C33.7227-11.2874 33.8529-11.7676 33.9831-12.2559L27.196-20.7031L25.1452-11.2793L13.8659 2.09961C13.3125 2.7181 12.8649 3.31217 12.5231 3.88184C12.1813 4.4515 12.0104 5.12695 12.0104 5.9082C12.0104 7.08008 12.3848 8.02409 13.1335 8.74023C13.8822 9.45638 14.8099 9.81445 15.9167 9.81445ZM54.1003-34.8145L62.8893-34.8145C64.1914-34.8145 65.2331-35.1481 66.0143-35.8154C66.7956-36.4827 67.1862-37.4023 67.1862-38.5742C67.1862-39.7461 66.7956-40.6819 66.0143-41.3818C65.2331-42.0817 64.1914-42.4316 62.8893-42.4316L53.5632-42.4316L47.1667-49.4141L46.4831-39.209L49.1198-36.5723C49.8034-35.8887 50.5114-35.4248 51.2438-35.1807C51.9763-34.9366 52.9284-34.8145 54.1003-34.8145Z"/>
  </g>
  <g id="Light-S" transform="matrix(1 0 0 1 1114.13 696)">
   <path class="hierarchical-0:primary SFSymbolsPreview212121" d="M37.6683 9.7475L37.6683 15.2832L63.1905 15.2832L63.1905 21.9497L9.24161 21.9497L9.24161 9.7475C28.6031 9.7475 38.0787 9.7475 37.6683 9.7475Z"/>
   <path class="hierarchical-1:secondary SFSymbolsPreview4D4D4D" d="M51.16 8.90299C52.1257 8.90299 52.9938 8.54492 53.7642 7.82878C54.5346 7.11263 54.9198 6.10894 54.9198 4.81771C54.9198 3.9388 54.6594 2.94596 54.1385 1.83919L46.3098-14.0137C45.9625-14.6756 45.5936-15.332 45.203-15.9831C44.8124-16.6341 44.4326-17.2255 44.0637-17.7572L39.0669-24.821L39.3925-25.8138C40.0869-27.9188 40.5969-29.7445 40.9224-31.2907C41.2479-32.8369 41.4812-34.6463 41.6223-36.7188L42.436-48.3399C42.6314-51.1285 41.9776-53.5075 40.4748-55.4769C38.972-57.4463 36.7937-58.431 33.94-58.431C31.7916-58.431 29.8927-57.8668 28.2434-56.7383C26.5941-55.6098 24.7928-54.0907 22.8397-52.181L16.7037-46.1426C15.6728-45.1118 14.9513-44.1243 14.5389-43.1803C14.1266-42.2363 13.8716-41.1133 13.774-39.8112L13.0416-30.2571C12.9439-29.0093 13.207-28.0002 13.8309-27.2298C14.4548-26.4594 15.3202-26.0471 16.427-25.9929C17.4795-25.9169 18.3692-26.1936 19.0962-26.8229C19.8232-27.4522 20.2464-28.4342 20.3657-29.7689L21.2284-40.3646L24.923-43.6035C25.2486-43.8965 25.5985-43.9778 25.9728-43.8476C26.3472-43.7174 26.5181-43.3974 26.4855-42.8874L25.8019-33.3984C25.65-31.1415 25.9647-29.1694 26.746-27.4821C27.5272-25.7948 28.4767-24.2513 29.5943-22.8515L37.537-12.8581C37.9385-12.3589 38.207-11.9764 38.3427-11.7106C38.4783-11.4448 38.6275-11.1383 38.7902-10.791L47.2538 6.31511C47.7204 7.28082 48.2982 7.95356 48.9872 8.33334C49.6762 8.71311 50.4005 8.90299 51.16 8.90299ZM38.3833-61.6048C40.8464-61.6048 42.9406-62.4783 44.6659-64.2253C46.3911-65.9722 47.2538-68.0284 47.2538-70.3939C47.2538-72.857 46.3911-74.9593 44.6659-76.7009C42.9406-78.4424 40.8464-79.3131 38.3833-79.3131C35.9528-79.3131 33.8803-78.4424 32.1659-76.7009C30.4515-74.9593 29.5943-72.857 29.5943-70.3939C29.5943-68.0284 30.4515-65.9722 32.1659-64.2253C33.8803-62.4783 35.9528-61.6048 38.3833-61.6048ZM15.3202 8.90299C16.6223 8.90299 17.6748 8.42014 18.4777 7.45443L30.3755-6.70573C30.9832-7.43273 31.3765-7.97526 31.5556-8.33333C31.7346-8.6914 31.9435-9.22308 32.1822-9.92838C32.3992-10.536 32.5864-11.1192 32.7437-11.678C32.9011-12.2369 33.0557-12.7984 33.2076-13.3627L26.6158-21.5332L24.5487-11.849L13.3833 1.39974C12.8516 2.00738 12.4149 2.59331 12.0731 3.15755C11.7313 3.72179 11.5604 4.38911 11.5604 5.1595C11.5604 6.27713 11.9185 7.18045 12.6347 7.86946C13.3508 8.55848 14.246 8.90299 15.3202 8.90299ZM52.6737-34.9772L61.4302-34.9772C62.6781-34.9772 63.6763-35.3027 64.425-35.9538C65.1737-36.6048 65.5481-37.4946 65.5481-38.623C65.5481-39.7407 65.1737-40.6358 64.425-41.3086C63.6763-41.9813 62.6781-42.3177 61.4302-42.3177L52.1529-42.3177L45.496-49.528L44.8124-39.681L47.7909-36.7188C48.4636-36.0569 49.1608-35.6012 49.8823-35.3516C50.604-35.102 51.5344-34.9772 52.6737-34.9772Z"/>
  </g>
  <g id="Thin-S" transform="matrix(1 0 0 1 818.5 696)">
   <path class="hierarchical-0:primary SFSymbolsPreview212121" d="M36.2388 8.42492L36.2388 13.9606L60.4776 13.9606L60.4776 20.6271L9.24161 20.6271L9.24161 8.42492C27.6295 8.42492 36.6286 8.42492 36.2388 8.42492Z"/>
   <path class="hierarchical-1:secondary SFSymbolsPreview4D4D4D" d="M49.467 7.69752C50.3753 7.69752 51.1967 7.35021 51.9313 6.65559C52.6658 5.96097 53.033 4.99675 53.033 3.76292C53.033 2.92706 52.7726 1.95575 52.2517 0.848979L44.5952-14.7241C44.2623-15.3572 43.9006-15.9993 43.5099-16.6504C43.1193-17.3015 42.7539-17.8785 42.4137-18.3815L37.5245-25.2945L37.8286-26.2443C38.4943-28.335 38.99-30.1319 39.3155-31.6351C39.641-33.1383 39.8814-34.8974 40.0369-36.9125L40.8291-48.2753C41.0244-51.0065 40.3994-53.3353 38.954-55.2616C37.5085-57.188 35.4307-58.1511 32.7205-58.1511C30.6152-58.1511 28.7557-57.6049 27.1423-56.5123C25.5289-55.4197 23.7671-53.9257 21.8571-52.0303L15.8717-46.1426C14.8552-45.1261 14.148-44.1566 13.75-43.2341C13.352-42.3116 13.1042-41.2209 13.0066-39.9619L12.2741-30.4939C12.1765-29.3178 12.4216-28.3625 13.0097-27.628C13.5977-26.8935 14.4021-26.5063 15.4228-26.4664C16.4466-26.3761 17.3076-26.6313 18.0059-27.2319C18.7042-27.8325 19.1058-28.7571 19.2109-30.0057L20.052-40.6014L23.8543-43.9264C24.1798-44.2194 24.5297-44.3007 24.9041-44.1705C25.2784-44.0403 25.4493-43.7274 25.4168-43.2318L24.7332-33.6568C24.5956-31.4716 24.9067-29.5497 25.6665-27.8911C26.4262-26.2325 27.3505-24.7249 28.4394-23.3682L36.2314-13.5899C36.6042-13.1195 36.862-12.7478 37.0048-12.4748C37.1476-12.2018 37.3004-11.8989 37.4632-11.566L45.7545 5.23879C46.1924 6.14709 46.7379 6.78396 47.391 7.14938C48.0442 7.51481 48.7362 7.69752 49.467 7.69752ZM36.8409-61.0666C39.2036-61.0666 41.2153-61.9114 42.876-63.601C44.5367-65.2905 45.367-67.2678 45.367-69.5328C45.367-71.8955 44.5367-73.9153 42.876-75.5922C41.2153-77.2692 39.2036-78.1076 36.8409-78.1076C34.5109-78.1076 32.5173-77.2692 30.8603-75.5922C29.2033-73.9153 28.3748-71.8955 28.3748-69.5328C28.3748-67.2678 29.2033-65.2905 30.8603-63.601C32.5173-61.9114 34.5109-61.0666 36.8409-61.0666ZM14.5312 7.69752C15.7903 7.69752 16.8141 7.22184 17.6027 6.27047L29.2207-7.56678C29.857-8.30813 30.2539-8.84708 30.4115-9.18362C30.569-9.52016 30.7527-10.0339 30.9627-10.7249C31.2084-11.4473 31.4279-12.1453 31.6211-12.8189C31.8144-13.4926 32.0012-14.1618 32.1818-14.8265L25.8483-22.6311L23.7597-12.6024L12.7451 0.474105C12.2421 1.06739 11.8197 1.64257 11.4779 2.19963C11.1361 2.75669 10.9653 3.41324 10.9653 4.16929C10.9653 5.21516 11.3018 6.06466 11.9749 6.7178C12.648 7.37095 13.5001 7.69752 14.5312 7.69752ZM50.7869-35.1925L59.5004-35.1925C60.6765-35.1925 61.6173-35.5072 62.323-36.1368C63.0286-36.7663 63.3815-37.6166 63.3815-38.6876C63.3815-39.7335 63.0286-40.5749 62.323-41.2117C61.6173-41.8486 60.6765-42.167 59.5004-42.167L50.2876-42.167L43.2863-49.6787L42.6027-40.3053L46.0333-36.9125C46.6916-36.2793 47.3744-35.8344 48.0816-35.5776C48.7889-35.3209 49.6907-35.1925 50.7869-35.1925Z"/>
  </g>
  <g id="Ultralight-S" transform="matrix(1 0 0 1 522.344 696)">
   <path class="hierarchical-0:primary SFSymbolsPreview212121" d="M35.5067 7.7475L35.5067 13.2832L59.0882 13.2832L59.0882 19.9497L9.24161 19.9497L9.24161 7.7475C27.1309 7.7475 35.8859 7.7475 35.5067 7.7475Z"/>
   <path class="hierarchical-1:secondary SFSymbolsPreview4D4D4D" d="M48.5999 7.08008C49.4788 7.08008 50.2763 6.73828 50.9925 6.05469C51.7086 5.3711 52.0667 4.42709 52.0667 3.22266C52.0667 2.40885 51.8063 1.44857 51.2854 0.341797L43.7171-15.0879C43.3916-15.7064 43.0335-16.3411 42.6428-16.9922C42.2522-17.6433 41.8941-18.2129 41.5686-18.7012L36.7346-25.5371L37.0276-26.4648C37.6787-28.5481 38.167-30.3304 38.4925-31.8115C38.818-33.2926 39.0621-35.026 39.2249-37.0117L40.0061-48.2422C40.2014-50.944 39.5911-53.2471 38.1751-55.1514C36.759-57.0557 34.7327-58.0078 32.096-58.0078C30.0127-58.0078 28.1735-57.4707 26.5784-56.3965C24.9833-55.3223 23.2418-53.8412 21.3538-51.9531L15.4456-46.1426C14.4365-45.1335 13.7366-44.1732 13.346-43.2617C12.9553-42.3502 12.7112-41.276 12.6136-40.0391L11.8811-30.6152C11.7834-29.4759 12.0194-28.5481 12.5891-27.832C13.1588-27.1159 13.9319-26.7415 14.9085-26.709C15.9176-26.6113 16.7639-26.8555 17.4475-27.4414C18.1311-28.0273 18.5217-28.9225 18.6194-30.127L19.4495-40.7227L23.3069-44.0918C23.6324-44.3847 23.9824-44.4661 24.3567-44.3359C24.731-44.2057 24.9019-43.8965 24.8694-43.4082L24.1858-33.7891C24.0556-31.6406 24.3649-29.7445 25.1136-28.1006C25.8623-26.4567 26.7737-24.9675 27.8479-23.6328L35.5628-13.9648C35.9209-13.5091 36.1731-13.1429 36.3196-12.8662C36.4661-12.5895 36.6207-12.2884 36.7835-11.9629L44.9866 4.6875C45.4098 5.56641 45.9388 6.1849 46.5735 6.54297C47.2083 6.90104 47.8838 7.08008 48.5999 7.08008ZM36.051-60.791C38.3622-60.791 40.3316-61.6211 41.9593-63.2812C43.5869-64.9414 44.4007-66.8783 44.4007-69.0918C44.4007-71.403 43.5869-73.3805 41.9593-75.0244C40.3316-76.6683 38.3622-77.4902 36.051-77.4902C33.7724-77.4902 31.8193-76.6683 30.1917-75.0244C28.5641-73.3805 27.7503-71.403 27.7503-69.0918C27.7503-66.8783 28.5641-64.9414 30.1917-63.2812C31.8193-61.6211 33.7724-60.791 36.051-60.791ZM14.1272 7.08008C15.3642 7.08008 16.3733 6.60807 17.1546 5.66406L28.6292-8.00781C29.2802-8.75651 29.679-9.29362 29.8255-9.61914C29.972-9.94465 30.1429-10.4492 30.3382-11.1328C30.5986-11.9141 30.8346-12.6709 31.0462-13.4033C31.2578-14.1358 31.4612-14.8601 31.6565-15.5762L25.4553-23.1934L23.3557-12.9883L12.4182 0C11.9299 0.585937 11.5149 1.1556 11.1731 1.70898C10.8313 2.26237 10.6604 2.91341 10.6604 3.66211C10.6604 4.67122 10.9859 5.49316 11.637 6.12793C12.2881 6.7627 13.1181 7.08008 14.1272 7.08008ZM49.8206-35.3027L58.512-35.3027C59.6513-35.3027 60.5628-35.612 61.2464-36.2305C61.93-36.849 62.2718-37.679 62.2718-38.7207C62.2718-39.7298 61.93-40.5436 61.2464-41.1621C60.5628-41.7806 59.6513-42.0898 58.512-42.0898L49.3323-42.0898L42.1546-49.7559L41.471-40.625L45.1331-37.0117C45.7841-36.3932 46.4595-35.9538 47.1594-35.6934C47.8593-35.4329 48.7464-35.3027 49.8206-35.3027Z"/>
  </g>
 </g>
</svg>
